<mxfile host="app.diagrams.net" agent="Mozilla/5.0 (Macintosh; Intel Mac OS X 10_15_7) AppleWebKit/537.36 (KHTML, like Gecko) Chrome/131.0.0.0 Safari/537.36" version="26.0.6">
  <diagram name="第 1 页" id="_wpt9Xtd_mOi68tcK9Fx">
    <mxGraphModel dx="521" dy="265" grid="1" gridSize="10" guides="1" tooltips="1" connect="1" arrows="1" fold="1" page="1" pageScale="1" pageWidth="827" pageHeight="1169" math="0" shadow="0">
      <root>
        <mxCell id="0" />
        <mxCell id="1" parent="0" />
        <mxCell id="73tQ1K4yN3Zxp4GSFfO6-1" value="" style="shape=table;startSize=0;container=1;collapsible=0;childLayout=tableLayout;fontSize=16;fontFamily=Times New Roman;swimlaneFillColor=none;fillStyle=hatch;gradientColor=none;fillColor=none;strokeColor=default;" vertex="1" parent="1">
          <mxGeometry x="120" y="161" width="160" height="159" as="geometry" />
        </mxCell>
        <mxCell id="73tQ1K4yN3Zxp4GSFfO6-53" style="shape=tableRow;horizontal=0;startSize=0;swimlaneHead=0;swimlaneBody=0;top=0;left=0;bottom=0;right=0;collapsible=0;dropTarget=0;points=[[0,0.5],[1,0.5]];portConstraint=eastwest;fontSize=16;fontFamily=Times New Roman;swimlaneFillColor=none;fillStyle=hatch;gradientColor=none;fillColor=none;strokeColor=default;" vertex="1" parent="73tQ1K4yN3Zxp4GSFfO6-1">
          <mxGeometry width="160" height="23" as="geometry" />
        </mxCell>
        <mxCell id="73tQ1K4yN3Zxp4GSFfO6-54" value="0" style="shape=partialRectangle;html=1;whiteSpace=wrap;connectable=0;overflow=hidden;top=0;left=0;bottom=0;right=0;pointerEvents=1;fontSize=16;fontFamily=Times New Roman;swimlaneFillColor=none;fillStyle=hatch;gradientColor=none;fillColor=none;strokeColor=default;" vertex="1" parent="73tQ1K4yN3Zxp4GSFfO6-53">
          <mxGeometry width="24" height="23" as="geometry">
            <mxRectangle width="24" height="23" as="alternateBounds" />
          </mxGeometry>
        </mxCell>
        <mxCell id="73tQ1K4yN3Zxp4GSFfO6-55" value="0" style="shape=partialRectangle;html=1;whiteSpace=wrap;connectable=0;overflow=hidden;top=0;left=0;bottom=0;right=0;pointerEvents=1;fontSize=16;fontFamily=Times New Roman;swimlaneFillColor=none;fillStyle=hatch;gradientColor=none;fillColor=none;strokeColor=default;" vertex="1" parent="73tQ1K4yN3Zxp4GSFfO6-53">
          <mxGeometry x="24" width="21" height="23" as="geometry">
            <mxRectangle width="21" height="23" as="alternateBounds" />
          </mxGeometry>
        </mxCell>
        <mxCell id="73tQ1K4yN3Zxp4GSFfO6-56" value="0" style="shape=partialRectangle;html=1;whiteSpace=wrap;connectable=0;overflow=hidden;top=0;left=0;bottom=0;right=0;pointerEvents=1;fontSize=16;fontFamily=Times New Roman;swimlaneFillColor=none;fillStyle=hatch;gradientColor=none;fillColor=none;strokeColor=default;" vertex="1" parent="73tQ1K4yN3Zxp4GSFfO6-53">
          <mxGeometry x="45" width="23" height="23" as="geometry">
            <mxRectangle width="23" height="23" as="alternateBounds" />
          </mxGeometry>
        </mxCell>
        <mxCell id="73tQ1K4yN3Zxp4GSFfO6-57" value="0" style="shape=partialRectangle;html=1;whiteSpace=wrap;connectable=0;overflow=hidden;top=0;left=0;bottom=0;right=0;pointerEvents=1;fontSize=16;fontFamily=Times New Roman;swimlaneFillColor=none;fillStyle=hatch;gradientColor=none;fillColor=none;strokeColor=default;" vertex="1" parent="73tQ1K4yN3Zxp4GSFfO6-53">
          <mxGeometry x="68" width="24" height="23" as="geometry">
            <mxRectangle width="24" height="23" as="alternateBounds" />
          </mxGeometry>
        </mxCell>
        <mxCell id="73tQ1K4yN3Zxp4GSFfO6-58" value="1" style="shape=partialRectangle;html=1;whiteSpace=wrap;connectable=0;overflow=hidden;top=0;left=0;bottom=0;right=0;pointerEvents=1;fontSize=16;fontFamily=Times New Roman;swimlaneFillColor=none;fillStyle=hatch;gradientColor=none;fillColor=none;strokeColor=default;" vertex="1" parent="73tQ1K4yN3Zxp4GSFfO6-53">
          <mxGeometry x="92" width="23" height="23" as="geometry">
            <mxRectangle width="23" height="23" as="alternateBounds" />
          </mxGeometry>
        </mxCell>
        <mxCell id="73tQ1K4yN3Zxp4GSFfO6-59" value="0" style="shape=partialRectangle;html=1;whiteSpace=wrap;connectable=0;overflow=hidden;top=0;left=0;bottom=0;right=0;pointerEvents=1;fontSize=16;fontFamily=Times New Roman;swimlaneFillColor=none;fillStyle=hatch;gradientColor=none;fillColor=none;strokeColor=default;" vertex="1" parent="73tQ1K4yN3Zxp4GSFfO6-53">
          <mxGeometry x="115" width="21" height="23" as="geometry">
            <mxRectangle width="21" height="23" as="alternateBounds" />
          </mxGeometry>
        </mxCell>
        <mxCell id="73tQ1K4yN3Zxp4GSFfO6-60" value="0" style="shape=partialRectangle;html=1;whiteSpace=wrap;connectable=0;overflow=hidden;top=0;left=0;bottom=0;right=0;pointerEvents=1;fontSize=16;fontFamily=Times New Roman;swimlaneFillColor=none;fillStyle=hatch;gradientColor=none;fillColor=none;strokeColor=default;" vertex="1" parent="73tQ1K4yN3Zxp4GSFfO6-53">
          <mxGeometry x="136" width="24" height="23" as="geometry">
            <mxRectangle width="24" height="23" as="alternateBounds" />
          </mxGeometry>
        </mxCell>
        <mxCell id="73tQ1K4yN3Zxp4GSFfO6-45" style="shape=tableRow;horizontal=0;startSize=0;swimlaneHead=0;swimlaneBody=0;top=0;left=0;bottom=0;right=0;collapsible=0;dropTarget=0;points=[[0,0.5],[1,0.5]];portConstraint=eastwest;fontSize=16;fontFamily=Times New Roman;swimlaneFillColor=none;fillStyle=hatch;gradientColor=none;fillColor=none;strokeColor=default;" vertex="1" parent="73tQ1K4yN3Zxp4GSFfO6-1">
          <mxGeometry y="23" width="160" height="22" as="geometry" />
        </mxCell>
        <mxCell id="73tQ1K4yN3Zxp4GSFfO6-46" value="1" style="shape=partialRectangle;html=1;whiteSpace=wrap;connectable=0;overflow=hidden;top=0;left=0;bottom=0;right=0;pointerEvents=1;fontSize=16;fontFamily=Times New Roman;swimlaneFillColor=none;fillStyle=hatch;gradientColor=none;fillColor=none;strokeColor=default;" vertex="1" parent="73tQ1K4yN3Zxp4GSFfO6-45">
          <mxGeometry width="24" height="22" as="geometry">
            <mxRectangle width="24" height="22" as="alternateBounds" />
          </mxGeometry>
        </mxCell>
        <mxCell id="73tQ1K4yN3Zxp4GSFfO6-47" value="0" style="shape=partialRectangle;html=1;whiteSpace=wrap;connectable=0;overflow=hidden;top=0;left=0;bottom=0;right=0;pointerEvents=1;fontSize=16;fontFamily=Times New Roman;swimlaneFillColor=none;fillStyle=hatch;gradientColor=none;fillColor=none;strokeColor=default;" vertex="1" parent="73tQ1K4yN3Zxp4GSFfO6-45">
          <mxGeometry x="24" width="21" height="22" as="geometry">
            <mxRectangle width="21" height="22" as="alternateBounds" />
          </mxGeometry>
        </mxCell>
        <mxCell id="73tQ1K4yN3Zxp4GSFfO6-48" value="0" style="shape=partialRectangle;html=1;whiteSpace=wrap;connectable=0;overflow=hidden;top=0;left=0;bottom=0;right=0;pointerEvents=1;fontSize=16;fontFamily=Times New Roman;swimlaneFillColor=none;fillStyle=hatch;gradientColor=none;fillColor=none;strokeColor=default;" vertex="1" parent="73tQ1K4yN3Zxp4GSFfO6-45">
          <mxGeometry x="45" width="23" height="22" as="geometry">
            <mxRectangle width="23" height="22" as="alternateBounds" />
          </mxGeometry>
        </mxCell>
        <mxCell id="73tQ1K4yN3Zxp4GSFfO6-49" value="1" style="shape=partialRectangle;html=1;whiteSpace=wrap;connectable=0;overflow=hidden;top=0;left=0;bottom=0;right=0;pointerEvents=1;fontSize=16;fontFamily=Times New Roman;swimlaneFillColor=none;fillStyle=hatch;gradientColor=none;fillColor=none;strokeColor=default;" vertex="1" parent="73tQ1K4yN3Zxp4GSFfO6-45">
          <mxGeometry x="68" width="24" height="22" as="geometry">
            <mxRectangle width="24" height="22" as="alternateBounds" />
          </mxGeometry>
        </mxCell>
        <mxCell id="73tQ1K4yN3Zxp4GSFfO6-50" value="0" style="shape=partialRectangle;html=1;whiteSpace=wrap;connectable=0;overflow=hidden;top=0;left=0;bottom=0;right=0;pointerEvents=1;fontSize=16;fontFamily=Times New Roman;swimlaneFillColor=none;fillStyle=hatch;gradientColor=none;fillColor=none;strokeColor=default;" vertex="1" parent="73tQ1K4yN3Zxp4GSFfO6-45">
          <mxGeometry x="92" width="23" height="22" as="geometry">
            <mxRectangle width="23" height="22" as="alternateBounds" />
          </mxGeometry>
        </mxCell>
        <mxCell id="73tQ1K4yN3Zxp4GSFfO6-51" value="0" style="shape=partialRectangle;html=1;whiteSpace=wrap;connectable=0;overflow=hidden;top=0;left=0;bottom=0;right=0;pointerEvents=1;fontSize=16;fontFamily=Times New Roman;swimlaneFillColor=none;fillStyle=hatch;gradientColor=none;fillColor=none;strokeColor=default;" vertex="1" parent="73tQ1K4yN3Zxp4GSFfO6-45">
          <mxGeometry x="115" width="21" height="22" as="geometry">
            <mxRectangle width="21" height="22" as="alternateBounds" />
          </mxGeometry>
        </mxCell>
        <mxCell id="73tQ1K4yN3Zxp4GSFfO6-52" value="1" style="shape=partialRectangle;html=1;whiteSpace=wrap;connectable=0;overflow=hidden;top=0;left=0;bottom=0;right=0;pointerEvents=1;fontSize=16;fontFamily=Times New Roman;swimlaneFillColor=none;fillStyle=hatch;gradientColor=none;fillColor=none;strokeColor=default;" vertex="1" parent="73tQ1K4yN3Zxp4GSFfO6-45">
          <mxGeometry x="136" width="24" height="22" as="geometry">
            <mxRectangle width="24" height="22" as="alternateBounds" />
          </mxGeometry>
        </mxCell>
        <mxCell id="73tQ1K4yN3Zxp4GSFfO6-37" style="shape=tableRow;horizontal=0;startSize=0;swimlaneHead=0;swimlaneBody=0;top=0;left=0;bottom=0;right=0;collapsible=0;dropTarget=0;points=[[0,0.5],[1,0.5]];portConstraint=eastwest;fontSize=16;fontFamily=Times New Roman;swimlaneFillColor=none;fillStyle=hatch;gradientColor=none;fillColor=none;strokeColor=default;" vertex="1" parent="73tQ1K4yN3Zxp4GSFfO6-1">
          <mxGeometry y="45" width="160" height="23" as="geometry" />
        </mxCell>
        <mxCell id="73tQ1K4yN3Zxp4GSFfO6-38" value="0" style="shape=partialRectangle;html=1;whiteSpace=wrap;connectable=0;overflow=hidden;top=0;left=0;bottom=0;right=0;pointerEvents=1;fontSize=16;fontFamily=Times New Roman;swimlaneFillColor=none;fillStyle=hatch;gradientColor=none;fillColor=none;strokeColor=default;" vertex="1" parent="73tQ1K4yN3Zxp4GSFfO6-37">
          <mxGeometry width="24" height="23" as="geometry">
            <mxRectangle width="24" height="23" as="alternateBounds" />
          </mxGeometry>
        </mxCell>
        <mxCell id="73tQ1K4yN3Zxp4GSFfO6-39" value="0" style="shape=partialRectangle;html=1;whiteSpace=wrap;connectable=0;overflow=hidden;top=0;left=0;bottom=0;right=0;pointerEvents=1;fontSize=16;fontFamily=Times New Roman;swimlaneFillColor=none;fillStyle=hatch;gradientColor=none;fillColor=none;strokeColor=default;" vertex="1" parent="73tQ1K4yN3Zxp4GSFfO6-37">
          <mxGeometry x="24" width="21" height="23" as="geometry">
            <mxRectangle width="21" height="23" as="alternateBounds" />
          </mxGeometry>
        </mxCell>
        <mxCell id="73tQ1K4yN3Zxp4GSFfO6-40" value="1" style="shape=partialRectangle;html=1;whiteSpace=wrap;connectable=0;overflow=hidden;top=0;left=0;bottom=0;right=0;pointerEvents=1;fontSize=16;fontFamily=Times New Roman;swimlaneFillColor=none;fillStyle=hatch;gradientColor=none;fillColor=none;strokeColor=default;" vertex="1" parent="73tQ1K4yN3Zxp4GSFfO6-37">
          <mxGeometry x="45" width="23" height="23" as="geometry">
            <mxRectangle width="23" height="23" as="alternateBounds" />
          </mxGeometry>
        </mxCell>
        <mxCell id="73tQ1K4yN3Zxp4GSFfO6-41" value="0" style="shape=partialRectangle;html=1;whiteSpace=wrap;connectable=0;overflow=hidden;top=0;left=0;bottom=0;right=0;pointerEvents=1;fontSize=16;fontFamily=Times New Roman;swimlaneFillColor=none;fillStyle=hatch;gradientColor=none;fillColor=none;strokeColor=default;" vertex="1" parent="73tQ1K4yN3Zxp4GSFfO6-37">
          <mxGeometry x="68" width="24" height="23" as="geometry">
            <mxRectangle width="24" height="23" as="alternateBounds" />
          </mxGeometry>
        </mxCell>
        <mxCell id="73tQ1K4yN3Zxp4GSFfO6-42" value="1" style="shape=partialRectangle;html=1;whiteSpace=wrap;connectable=0;overflow=hidden;top=0;left=0;bottom=0;right=0;pointerEvents=1;fontSize=16;fontFamily=Times New Roman;swimlaneFillColor=none;fillStyle=hatch;gradientColor=none;fillColor=none;strokeColor=default;" vertex="1" parent="73tQ1K4yN3Zxp4GSFfO6-37">
          <mxGeometry x="92" width="23" height="23" as="geometry">
            <mxRectangle width="23" height="23" as="alternateBounds" />
          </mxGeometry>
        </mxCell>
        <mxCell id="73tQ1K4yN3Zxp4GSFfO6-43" value="0" style="shape=partialRectangle;html=1;whiteSpace=wrap;connectable=0;overflow=hidden;top=0;left=0;bottom=0;right=0;pointerEvents=1;fontSize=16;fontFamily=Times New Roman;swimlaneFillColor=none;fillStyle=hatch;gradientColor=none;fillColor=none;strokeColor=default;" vertex="1" parent="73tQ1K4yN3Zxp4GSFfO6-37">
          <mxGeometry x="115" width="21" height="23" as="geometry">
            <mxRectangle width="21" height="23" as="alternateBounds" />
          </mxGeometry>
        </mxCell>
        <mxCell id="73tQ1K4yN3Zxp4GSFfO6-44" value="0" style="shape=partialRectangle;html=1;whiteSpace=wrap;connectable=0;overflow=hidden;top=0;left=0;bottom=0;right=0;pointerEvents=1;fontSize=16;fontFamily=Times New Roman;swimlaneFillColor=none;fillStyle=hatch;gradientColor=none;fillColor=none;strokeColor=default;" vertex="1" parent="73tQ1K4yN3Zxp4GSFfO6-37">
          <mxGeometry x="136" width="24" height="23" as="geometry">
            <mxRectangle width="24" height="23" as="alternateBounds" />
          </mxGeometry>
        </mxCell>
        <mxCell id="73tQ1K4yN3Zxp4GSFfO6-29" style="shape=tableRow;horizontal=0;startSize=0;swimlaneHead=0;swimlaneBody=0;top=0;left=0;bottom=0;right=0;collapsible=0;dropTarget=0;points=[[0,0.5],[1,0.5]];portConstraint=eastwest;fontSize=16;fontFamily=Times New Roman;swimlaneFillColor=none;fillStyle=hatch;gradientColor=none;fillColor=none;strokeColor=default;" vertex="1" parent="73tQ1K4yN3Zxp4GSFfO6-1">
          <mxGeometry y="68" width="160" height="23" as="geometry" />
        </mxCell>
        <mxCell id="73tQ1K4yN3Zxp4GSFfO6-30" value="0" style="shape=partialRectangle;html=1;whiteSpace=wrap;connectable=0;overflow=hidden;top=0;left=0;bottom=0;right=0;pointerEvents=1;fontSize=16;fontFamily=Times New Roman;swimlaneFillColor=none;fillStyle=hatch;gradientColor=none;fillColor=none;strokeColor=default;" vertex="1" parent="73tQ1K4yN3Zxp4GSFfO6-29">
          <mxGeometry width="24" height="23" as="geometry">
            <mxRectangle width="24" height="23" as="alternateBounds" />
          </mxGeometry>
        </mxCell>
        <mxCell id="73tQ1K4yN3Zxp4GSFfO6-31" value="1" style="shape=partialRectangle;html=1;whiteSpace=wrap;connectable=0;overflow=hidden;top=0;left=0;bottom=0;right=0;pointerEvents=1;fontSize=16;fontFamily=Times New Roman;swimlaneFillColor=none;fillStyle=hatch;gradientColor=none;fillColor=none;strokeColor=default;" vertex="1" parent="73tQ1K4yN3Zxp4GSFfO6-29">
          <mxGeometry x="24" width="21" height="23" as="geometry">
            <mxRectangle width="21" height="23" as="alternateBounds" />
          </mxGeometry>
        </mxCell>
        <mxCell id="73tQ1K4yN3Zxp4GSFfO6-32" value="1" style="shape=partialRectangle;html=1;whiteSpace=wrap;connectable=0;overflow=hidden;top=0;left=0;bottom=0;right=0;pointerEvents=1;fontSize=16;fontFamily=Times New Roman;swimlaneFillColor=none;fillStyle=hatch;gradientColor=none;fillColor=none;strokeColor=default;" vertex="1" parent="73tQ1K4yN3Zxp4GSFfO6-29">
          <mxGeometry x="45" width="23" height="23" as="geometry">
            <mxRectangle width="23" height="23" as="alternateBounds" />
          </mxGeometry>
        </mxCell>
        <mxCell id="73tQ1K4yN3Zxp4GSFfO6-33" value="0" style="shape=partialRectangle;html=1;whiteSpace=wrap;connectable=0;overflow=hidden;top=0;left=0;bottom=0;right=0;pointerEvents=1;fontSize=16;fontFamily=Times New Roman;swimlaneFillColor=none;fillStyle=hatch;gradientColor=none;fillColor=none;strokeColor=default;" vertex="1" parent="73tQ1K4yN3Zxp4GSFfO6-29">
          <mxGeometry x="68" width="24" height="23" as="geometry">
            <mxRectangle width="24" height="23" as="alternateBounds" />
          </mxGeometry>
        </mxCell>
        <mxCell id="73tQ1K4yN3Zxp4GSFfO6-34" value="0" style="shape=partialRectangle;html=1;whiteSpace=wrap;connectable=0;overflow=hidden;top=0;left=0;bottom=0;right=0;pointerEvents=1;fontSize=16;fontFamily=Times New Roman;swimlaneFillColor=none;fillStyle=hatch;gradientColor=none;fillColor=none;strokeColor=default;" vertex="1" parent="73tQ1K4yN3Zxp4GSFfO6-29">
          <mxGeometry x="92" width="23" height="23" as="geometry">
            <mxRectangle width="23" height="23" as="alternateBounds" />
          </mxGeometry>
        </mxCell>
        <mxCell id="73tQ1K4yN3Zxp4GSFfO6-35" value="1" style="shape=partialRectangle;html=1;whiteSpace=wrap;connectable=0;overflow=hidden;top=0;left=0;bottom=0;right=0;pointerEvents=1;fontSize=16;fontFamily=Times New Roman;swimlaneFillColor=none;fillStyle=hatch;gradientColor=none;fillColor=none;strokeColor=default;" vertex="1" parent="73tQ1K4yN3Zxp4GSFfO6-29">
          <mxGeometry x="115" width="21" height="23" as="geometry">
            <mxRectangle width="21" height="23" as="alternateBounds" />
          </mxGeometry>
        </mxCell>
        <mxCell id="73tQ1K4yN3Zxp4GSFfO6-36" value="0" style="shape=partialRectangle;html=1;whiteSpace=wrap;connectable=0;overflow=hidden;top=0;left=0;bottom=0;right=0;pointerEvents=1;fontSize=16;fontFamily=Times New Roman;swimlaneFillColor=none;fillStyle=hatch;gradientColor=none;fillColor=none;strokeColor=default;" vertex="1" parent="73tQ1K4yN3Zxp4GSFfO6-29">
          <mxGeometry x="136" width="24" height="23" as="geometry">
            <mxRectangle width="24" height="23" as="alternateBounds" />
          </mxGeometry>
        </mxCell>
        <mxCell id="73tQ1K4yN3Zxp4GSFfO6-2" value="" style="shape=tableRow;horizontal=0;startSize=0;swimlaneHead=0;swimlaneBody=0;top=0;left=0;bottom=0;right=0;collapsible=0;dropTarget=0;points=[[0,0.5],[1,0.5]];portConstraint=eastwest;fontSize=16;fontFamily=Times New Roman;swimlaneFillColor=none;fillStyle=hatch;gradientColor=none;fillColor=none;strokeColor=default;" vertex="1" parent="73tQ1K4yN3Zxp4GSFfO6-1">
          <mxGeometry y="91" width="160" height="23" as="geometry" />
        </mxCell>
        <mxCell id="73tQ1K4yN3Zxp4GSFfO6-23" value="1" style="shape=partialRectangle;html=1;whiteSpace=wrap;connectable=0;overflow=hidden;top=0;left=0;bottom=0;right=0;pointerEvents=1;fontSize=16;fontFamily=Times New Roman;swimlaneFillColor=none;fillStyle=hatch;gradientColor=none;fillColor=none;strokeColor=default;" vertex="1" parent="73tQ1K4yN3Zxp4GSFfO6-2">
          <mxGeometry width="24" height="23" as="geometry">
            <mxRectangle width="24" height="23" as="alternateBounds" />
          </mxGeometry>
        </mxCell>
        <mxCell id="73tQ1K4yN3Zxp4GSFfO6-20" value="0" style="shape=partialRectangle;html=1;whiteSpace=wrap;connectable=0;overflow=hidden;top=0;left=0;bottom=0;right=0;pointerEvents=1;fontSize=16;fontFamily=Times New Roman;swimlaneFillColor=none;fillStyle=hatch;gradientColor=none;fillColor=none;strokeColor=default;" vertex="1" parent="73tQ1K4yN3Zxp4GSFfO6-2">
          <mxGeometry x="24" width="21" height="23" as="geometry">
            <mxRectangle width="21" height="23" as="alternateBounds" />
          </mxGeometry>
        </mxCell>
        <mxCell id="73tQ1K4yN3Zxp4GSFfO6-14" value="1" style="shape=partialRectangle;html=1;whiteSpace=wrap;connectable=0;overflow=hidden;top=0;left=0;bottom=0;right=0;pointerEvents=1;fontSize=16;fontFamily=Times New Roman;swimlaneFillColor=none;fillStyle=hatch;gradientColor=none;fillColor=none;strokeColor=default;" vertex="1" parent="73tQ1K4yN3Zxp4GSFfO6-2">
          <mxGeometry x="45" width="23" height="23" as="geometry">
            <mxRectangle width="23" height="23" as="alternateBounds" />
          </mxGeometry>
        </mxCell>
        <mxCell id="73tQ1K4yN3Zxp4GSFfO6-3" value="0" style="shape=partialRectangle;html=1;whiteSpace=wrap;connectable=0;overflow=hidden;top=0;left=0;bottom=0;right=0;pointerEvents=1;fontSize=16;fontFamily=Times New Roman;swimlaneFillColor=none;fillStyle=hatch;gradientColor=none;fillColor=none;strokeColor=default;" vertex="1" parent="73tQ1K4yN3Zxp4GSFfO6-2">
          <mxGeometry x="68" width="24" height="23" as="geometry">
            <mxRectangle width="24" height="23" as="alternateBounds" />
          </mxGeometry>
        </mxCell>
        <mxCell id="73tQ1K4yN3Zxp4GSFfO6-4" value="0" style="shape=partialRectangle;html=1;whiteSpace=wrap;connectable=0;overflow=hidden;top=0;left=0;bottom=0;right=0;pointerEvents=1;fontSize=16;fontFamily=Times New Roman;swimlaneFillColor=none;fillStyle=hatch;gradientColor=none;fillColor=none;strokeColor=default;" vertex="1" parent="73tQ1K4yN3Zxp4GSFfO6-2">
          <mxGeometry x="92" width="23" height="23" as="geometry">
            <mxRectangle width="23" height="23" as="alternateBounds" />
          </mxGeometry>
        </mxCell>
        <mxCell id="73tQ1K4yN3Zxp4GSFfO6-5" value="1" style="shape=partialRectangle;html=1;whiteSpace=wrap;connectable=0;overflow=hidden;top=0;left=0;bottom=0;right=0;pointerEvents=1;fontSize=16;fontFamily=Times New Roman;swimlaneFillColor=none;fillStyle=hatch;gradientColor=none;fillColor=none;strokeColor=default;" vertex="1" parent="73tQ1K4yN3Zxp4GSFfO6-2">
          <mxGeometry x="115" width="21" height="23" as="geometry">
            <mxRectangle width="21" height="23" as="alternateBounds" />
          </mxGeometry>
        </mxCell>
        <mxCell id="73tQ1K4yN3Zxp4GSFfO6-17" value="0" style="shape=partialRectangle;html=1;whiteSpace=wrap;connectable=0;overflow=hidden;top=0;left=0;bottom=0;right=0;pointerEvents=1;fontSize=16;fontFamily=Times New Roman;swimlaneFillColor=none;fillStyle=hatch;gradientColor=none;fillColor=none;strokeColor=default;" vertex="1" parent="73tQ1K4yN3Zxp4GSFfO6-2">
          <mxGeometry x="136" width="24" height="23" as="geometry">
            <mxRectangle width="24" height="23" as="alternateBounds" />
          </mxGeometry>
        </mxCell>
        <mxCell id="73tQ1K4yN3Zxp4GSFfO6-6" value="" style="shape=tableRow;horizontal=0;startSize=0;swimlaneHead=0;swimlaneBody=0;top=0;left=0;bottom=0;right=0;collapsible=0;dropTarget=0;points=[[0,0.5],[1,0.5]];portConstraint=eastwest;fontSize=16;fontFamily=Times New Roman;swimlaneFillColor=none;fillStyle=hatch;gradientColor=none;fillColor=none;strokeColor=default;" vertex="1" parent="73tQ1K4yN3Zxp4GSFfO6-1">
          <mxGeometry y="114" width="160" height="22" as="geometry" />
        </mxCell>
        <mxCell id="73tQ1K4yN3Zxp4GSFfO6-24" value="0" style="shape=partialRectangle;html=1;whiteSpace=wrap;connectable=0;overflow=hidden;top=0;left=0;bottom=0;right=0;pointerEvents=1;fontSize=16;fontFamily=Times New Roman;swimlaneFillColor=none;fillStyle=hatch;gradientColor=none;fillColor=none;strokeColor=default;" vertex="1" parent="73tQ1K4yN3Zxp4GSFfO6-6">
          <mxGeometry width="24" height="22" as="geometry">
            <mxRectangle width="24" height="22" as="alternateBounds" />
          </mxGeometry>
        </mxCell>
        <mxCell id="73tQ1K4yN3Zxp4GSFfO6-21" value="0" style="shape=partialRectangle;html=1;whiteSpace=wrap;connectable=0;overflow=hidden;top=0;left=0;bottom=0;right=0;pointerEvents=1;fontSize=16;fontFamily=Times New Roman;swimlaneFillColor=none;fillStyle=hatch;gradientColor=none;fillColor=none;strokeColor=default;" vertex="1" parent="73tQ1K4yN3Zxp4GSFfO6-6">
          <mxGeometry x="24" width="21" height="22" as="geometry">
            <mxRectangle width="21" height="22" as="alternateBounds" />
          </mxGeometry>
        </mxCell>
        <mxCell id="73tQ1K4yN3Zxp4GSFfO6-15" value="1" style="shape=partialRectangle;html=1;whiteSpace=wrap;connectable=0;overflow=hidden;top=0;left=0;bottom=0;right=0;pointerEvents=1;fontSize=16;fontFamily=Times New Roman;swimlaneFillColor=none;fillStyle=hatch;gradientColor=none;fillColor=none;strokeColor=default;" vertex="1" parent="73tQ1K4yN3Zxp4GSFfO6-6">
          <mxGeometry x="45" width="23" height="22" as="geometry">
            <mxRectangle width="23" height="22" as="alternateBounds" />
          </mxGeometry>
        </mxCell>
        <mxCell id="73tQ1K4yN3Zxp4GSFfO6-7" value="0" style="shape=partialRectangle;html=1;whiteSpace=wrap;connectable=0;overflow=hidden;top=0;left=0;bottom=0;right=0;pointerEvents=1;fontSize=16;fontFamily=Times New Roman;swimlaneFillColor=none;fillStyle=hatch;gradientColor=none;fillColor=none;strokeColor=default;" vertex="1" parent="73tQ1K4yN3Zxp4GSFfO6-6">
          <mxGeometry x="68" width="24" height="22" as="geometry">
            <mxRectangle width="24" height="22" as="alternateBounds" />
          </mxGeometry>
        </mxCell>
        <mxCell id="73tQ1K4yN3Zxp4GSFfO6-8" value="0" style="shape=partialRectangle;html=1;whiteSpace=wrap;connectable=0;overflow=hidden;top=0;left=0;bottom=0;right=0;pointerEvents=1;fontSize=16;fontFamily=Times New Roman;swimlaneFillColor=none;fillStyle=hatch;gradientColor=none;fillColor=none;strokeColor=default;" vertex="1" parent="73tQ1K4yN3Zxp4GSFfO6-6">
          <mxGeometry x="92" width="23" height="22" as="geometry">
            <mxRectangle width="23" height="22" as="alternateBounds" />
          </mxGeometry>
        </mxCell>
        <mxCell id="73tQ1K4yN3Zxp4GSFfO6-9" value="1" style="shape=partialRectangle;html=1;whiteSpace=wrap;connectable=0;overflow=hidden;top=0;left=0;bottom=0;right=0;pointerEvents=1;fontSize=16;fontFamily=Times New Roman;swimlaneFillColor=none;fillStyle=hatch;gradientColor=none;fillColor=none;strokeColor=default;" vertex="1" parent="73tQ1K4yN3Zxp4GSFfO6-6">
          <mxGeometry x="115" width="21" height="22" as="geometry">
            <mxRectangle width="21" height="22" as="alternateBounds" />
          </mxGeometry>
        </mxCell>
        <mxCell id="73tQ1K4yN3Zxp4GSFfO6-18" value="0" style="shape=partialRectangle;html=1;whiteSpace=wrap;connectable=0;overflow=hidden;top=0;left=0;bottom=0;right=0;pointerEvents=1;fontSize=16;fontFamily=Times New Roman;swimlaneFillColor=none;fillStyle=hatch;gradientColor=none;fillColor=none;strokeColor=default;" vertex="1" parent="73tQ1K4yN3Zxp4GSFfO6-6">
          <mxGeometry x="136" width="24" height="22" as="geometry">
            <mxRectangle width="24" height="22" as="alternateBounds" />
          </mxGeometry>
        </mxCell>
        <mxCell id="73tQ1K4yN3Zxp4GSFfO6-10" value="" style="shape=tableRow;horizontal=0;startSize=0;swimlaneHead=0;swimlaneBody=0;top=0;left=0;bottom=0;right=0;collapsible=0;dropTarget=0;points=[[0,0.5],[1,0.5]];portConstraint=eastwest;fontSize=16;fontFamily=Times New Roman;swimlaneFillColor=none;fillStyle=hatch;gradientColor=none;fillColor=none;strokeColor=default;" vertex="1" parent="73tQ1K4yN3Zxp4GSFfO6-1">
          <mxGeometry y="136" width="160" height="23" as="geometry" />
        </mxCell>
        <mxCell id="73tQ1K4yN3Zxp4GSFfO6-25" value="0" style="shape=partialRectangle;html=1;whiteSpace=wrap;connectable=0;overflow=hidden;top=0;left=0;bottom=0;right=0;pointerEvents=1;fontSize=16;fontFamily=Times New Roman;swimlaneFillColor=none;fillStyle=hatch;gradientColor=none;fillColor=none;strokeColor=default;" vertex="1" parent="73tQ1K4yN3Zxp4GSFfO6-10">
          <mxGeometry width="24" height="23" as="geometry">
            <mxRectangle width="24" height="23" as="alternateBounds" />
          </mxGeometry>
        </mxCell>
        <mxCell id="73tQ1K4yN3Zxp4GSFfO6-22" value="0" style="shape=partialRectangle;html=1;whiteSpace=wrap;connectable=0;overflow=hidden;top=0;left=0;bottom=0;right=0;pointerEvents=1;fontSize=16;fontFamily=Times New Roman;swimlaneFillColor=none;fillStyle=hatch;gradientColor=none;fillColor=none;strokeColor=default;" vertex="1" parent="73tQ1K4yN3Zxp4GSFfO6-10">
          <mxGeometry x="24" width="21" height="23" as="geometry">
            <mxRectangle width="21" height="23" as="alternateBounds" />
          </mxGeometry>
        </mxCell>
        <mxCell id="73tQ1K4yN3Zxp4GSFfO6-16" value="0" style="shape=partialRectangle;html=1;whiteSpace=wrap;connectable=0;overflow=hidden;top=0;left=0;bottom=0;right=0;pointerEvents=1;fontSize=16;fontFamily=Times New Roman;swimlaneFillColor=none;fillStyle=hatch;gradientColor=none;fillColor=none;strokeColor=default;" vertex="1" parent="73tQ1K4yN3Zxp4GSFfO6-10">
          <mxGeometry x="45" width="23" height="23" as="geometry">
            <mxRectangle width="23" height="23" as="alternateBounds" />
          </mxGeometry>
        </mxCell>
        <mxCell id="73tQ1K4yN3Zxp4GSFfO6-11" value="1" style="shape=partialRectangle;html=1;whiteSpace=wrap;connectable=0;overflow=hidden;top=0;left=0;bottom=0;right=0;pointerEvents=1;fontSize=16;fontFamily=Times New Roman;swimlaneFillColor=none;fillStyle=hatch;gradientColor=none;fillColor=none;strokeColor=default;" vertex="1" parent="73tQ1K4yN3Zxp4GSFfO6-10">
          <mxGeometry x="68" width="24" height="23" as="geometry">
            <mxRectangle width="24" height="23" as="alternateBounds" />
          </mxGeometry>
        </mxCell>
        <mxCell id="73tQ1K4yN3Zxp4GSFfO6-12" value="1" style="shape=partialRectangle;html=1;whiteSpace=wrap;connectable=0;overflow=hidden;top=0;left=0;bottom=0;right=0;pointerEvents=1;fontSize=16;fontFamily=Times New Roman;swimlaneFillColor=none;fillStyle=hatch;gradientColor=none;fillColor=none;strokeColor=default;" vertex="1" parent="73tQ1K4yN3Zxp4GSFfO6-10">
          <mxGeometry x="92" width="23" height="23" as="geometry">
            <mxRectangle width="23" height="23" as="alternateBounds" />
          </mxGeometry>
        </mxCell>
        <mxCell id="73tQ1K4yN3Zxp4GSFfO6-13" value="0" style="shape=partialRectangle;html=1;whiteSpace=wrap;connectable=0;overflow=hidden;top=0;left=0;bottom=0;right=0;pointerEvents=1;fontSize=16;fontFamily=Times New Roman;swimlaneFillColor=none;fillStyle=hatch;gradientColor=none;fillColor=none;strokeColor=default;" vertex="1" parent="73tQ1K4yN3Zxp4GSFfO6-10">
          <mxGeometry x="115" width="21" height="23" as="geometry">
            <mxRectangle width="21" height="23" as="alternateBounds" />
          </mxGeometry>
        </mxCell>
        <mxCell id="73tQ1K4yN3Zxp4GSFfO6-19" value="1" style="shape=partialRectangle;html=1;whiteSpace=wrap;connectable=0;overflow=hidden;top=0;left=0;bottom=0;right=0;pointerEvents=1;fontSize=16;fontFamily=Times New Roman;swimlaneFillColor=none;fillStyle=hatch;gradientColor=none;fillColor=none;strokeColor=default;" vertex="1" parent="73tQ1K4yN3Zxp4GSFfO6-10">
          <mxGeometry x="136" width="24" height="23" as="geometry">
            <mxRectangle width="24" height="23" as="alternateBounds" />
          </mxGeometry>
        </mxCell>
        <mxCell id="73tQ1K4yN3Zxp4GSFfO6-383" value="" style="edgeStyle=orthogonalEdgeStyle;rounded=0;orthogonalLoop=1;jettySize=auto;html=1;" edge="1" parent="1" source="73tQ1K4yN3Zxp4GSFfO6-62" target="73tQ1K4yN3Zxp4GSFfO6-292">
          <mxGeometry relative="1" as="geometry" />
        </mxCell>
        <mxCell id="73tQ1K4yN3Zxp4GSFfO6-62" value="" style="shape=table;startSize=0;container=1;collapsible=0;childLayout=tableLayout;fontSize=16;fontFamily=Times New Roman;swimlaneLine=1;" vertex="1" parent="1">
          <mxGeometry x="330" y="141" width="200" height="199" as="geometry" />
        </mxCell>
        <mxCell id="73tQ1K4yN3Zxp4GSFfO6-174" style="shape=tableRow;horizontal=0;startSize=0;swimlaneHead=0;swimlaneBody=0;strokeColor=inherit;top=0;left=0;bottom=0;right=0;collapsible=0;dropTarget=0;fillColor=none;points=[[0,0.5],[1,0.5]];portConstraint=eastwest;fontSize=16;fontFamily=Times New Roman;" vertex="1" parent="73tQ1K4yN3Zxp4GSFfO6-62">
          <mxGeometry width="200" height="22" as="geometry" />
        </mxCell>
        <mxCell id="73tQ1K4yN3Zxp4GSFfO6-175" value="0" style="shape=partialRectangle;html=1;whiteSpace=wrap;connectable=0;strokeColor=inherit;overflow=hidden;fillColor=none;top=0;left=0;bottom=0;right=0;pointerEvents=1;fontSize=16;fontFamily=Times New Roman;" vertex="1" parent="73tQ1K4yN3Zxp4GSFfO6-174">
          <mxGeometry width="23" height="22" as="geometry">
            <mxRectangle width="23" height="22" as="alternateBounds" />
          </mxGeometry>
        </mxCell>
        <mxCell id="73tQ1K4yN3Zxp4GSFfO6-176" value="0" style="shape=partialRectangle;html=1;whiteSpace=wrap;connectable=0;strokeColor=inherit;overflow=hidden;fillColor=none;top=0;left=0;bottom=0;right=0;pointerEvents=1;fontSize=16;fontFamily=Times New Roman;" vertex="1" parent="73tQ1K4yN3Zxp4GSFfO6-174">
          <mxGeometry x="23" width="22" height="22" as="geometry">
            <mxRectangle width="22" height="22" as="alternateBounds" />
          </mxGeometry>
        </mxCell>
        <mxCell id="73tQ1K4yN3Zxp4GSFfO6-177" value="0" style="shape=partialRectangle;html=1;whiteSpace=wrap;connectable=0;strokeColor=inherit;overflow=hidden;fillColor=none;top=0;left=0;bottom=0;right=0;pointerEvents=1;fontSize=16;fontFamily=Times New Roman;" vertex="1" parent="73tQ1K4yN3Zxp4GSFfO6-174">
          <mxGeometry x="45" width="22" height="22" as="geometry">
            <mxRectangle width="22" height="22" as="alternateBounds" />
          </mxGeometry>
        </mxCell>
        <mxCell id="73tQ1K4yN3Zxp4GSFfO6-178" value="0" style="shape=partialRectangle;html=1;whiteSpace=wrap;connectable=0;strokeColor=inherit;overflow=hidden;fillColor=none;top=0;left=0;bottom=0;right=0;pointerEvents=1;fontSize=16;fontFamily=Times New Roman;" vertex="1" parent="73tQ1K4yN3Zxp4GSFfO6-174">
          <mxGeometry x="67" width="22" height="22" as="geometry">
            <mxRectangle width="22" height="22" as="alternateBounds" />
          </mxGeometry>
        </mxCell>
        <mxCell id="73tQ1K4yN3Zxp4GSFfO6-179" value="0" style="shape=partialRectangle;html=1;whiteSpace=wrap;connectable=0;strokeColor=inherit;overflow=hidden;fillColor=none;top=0;left=0;bottom=0;right=0;pointerEvents=1;fontSize=16;fontFamily=Times New Roman;" vertex="1" parent="73tQ1K4yN3Zxp4GSFfO6-174">
          <mxGeometry x="89" width="22" height="22" as="geometry">
            <mxRectangle width="22" height="22" as="alternateBounds" />
          </mxGeometry>
        </mxCell>
        <mxCell id="73tQ1K4yN3Zxp4GSFfO6-180" value="0" style="shape=partialRectangle;html=1;whiteSpace=wrap;connectable=0;strokeColor=inherit;overflow=hidden;fillColor=none;top=0;left=0;bottom=0;right=0;pointerEvents=1;fontSize=16;fontFamily=Times New Roman;" vertex="1" parent="73tQ1K4yN3Zxp4GSFfO6-174">
          <mxGeometry x="111" width="22" height="22" as="geometry">
            <mxRectangle width="22" height="22" as="alternateBounds" />
          </mxGeometry>
        </mxCell>
        <mxCell id="73tQ1K4yN3Zxp4GSFfO6-181" value="0" style="shape=partialRectangle;html=1;whiteSpace=wrap;connectable=0;strokeColor=inherit;overflow=hidden;fillColor=none;top=0;left=0;bottom=0;right=0;pointerEvents=1;fontSize=16;fontFamily=Times New Roman;" vertex="1" parent="73tQ1K4yN3Zxp4GSFfO6-174">
          <mxGeometry x="133" width="22" height="22" as="geometry">
            <mxRectangle width="22" height="22" as="alternateBounds" />
          </mxGeometry>
        </mxCell>
        <mxCell id="73tQ1K4yN3Zxp4GSFfO6-182" value="0" style="shape=partialRectangle;html=1;whiteSpace=wrap;connectable=0;strokeColor=inherit;overflow=hidden;fillColor=none;top=0;left=0;bottom=0;right=0;pointerEvents=1;fontSize=16;fontFamily=Times New Roman;" vertex="1" parent="73tQ1K4yN3Zxp4GSFfO6-174">
          <mxGeometry x="155" width="22" height="22" as="geometry">
            <mxRectangle width="22" height="22" as="alternateBounds" />
          </mxGeometry>
        </mxCell>
        <mxCell id="73tQ1K4yN3Zxp4GSFfO6-183" value="0" style="shape=partialRectangle;html=1;whiteSpace=wrap;connectable=0;strokeColor=inherit;overflow=hidden;fillColor=none;top=0;left=0;bottom=0;right=0;pointerEvents=1;fontSize=16;fontFamily=Times New Roman;" vertex="1" parent="73tQ1K4yN3Zxp4GSFfO6-174">
          <mxGeometry x="177" width="23" height="22" as="geometry">
            <mxRectangle width="23" height="22" as="alternateBounds" />
          </mxGeometry>
        </mxCell>
        <mxCell id="73tQ1K4yN3Zxp4GSFfO6-63" style="shape=tableRow;horizontal=0;startSize=0;swimlaneHead=0;swimlaneBody=0;strokeColor=inherit;top=0;left=0;bottom=0;right=0;collapsible=0;dropTarget=0;fillColor=none;points=[[0,0.5],[1,0.5]];portConstraint=eastwest;fontSize=16;fontFamily=Times New Roman;" vertex="1" parent="73tQ1K4yN3Zxp4GSFfO6-62">
          <mxGeometry y="22" width="200" height="22" as="geometry" />
        </mxCell>
        <mxCell id="73tQ1K4yN3Zxp4GSFfO6-119" value="0" style="shape=partialRectangle;html=1;whiteSpace=wrap;connectable=0;strokeColor=inherit;overflow=hidden;fillColor=none;top=0;left=0;bottom=0;right=0;pointerEvents=1;fontSize=16;fontFamily=Times New Roman;" vertex="1" parent="73tQ1K4yN3Zxp4GSFfO6-63">
          <mxGeometry width="23" height="22" as="geometry">
            <mxRectangle width="23" height="22" as="alternateBounds" />
          </mxGeometry>
        </mxCell>
        <mxCell id="73tQ1K4yN3Zxp4GSFfO6-64" value="0" style="shape=partialRectangle;html=1;whiteSpace=wrap;connectable=0;strokeColor=inherit;overflow=hidden;fillColor=none;top=0;left=0;bottom=0;right=0;pointerEvents=1;fontSize=16;fontFamily=Times New Roman;" vertex="1" parent="73tQ1K4yN3Zxp4GSFfO6-63">
          <mxGeometry x="23" width="22" height="22" as="geometry">
            <mxRectangle width="22" height="22" as="alternateBounds" />
          </mxGeometry>
        </mxCell>
        <mxCell id="73tQ1K4yN3Zxp4GSFfO6-65" value="0" style="shape=partialRectangle;html=1;whiteSpace=wrap;connectable=0;strokeColor=inherit;overflow=hidden;fillColor=none;top=0;left=0;bottom=0;right=0;pointerEvents=1;fontSize=16;fontFamily=Times New Roman;" vertex="1" parent="73tQ1K4yN3Zxp4GSFfO6-63">
          <mxGeometry x="45" width="22" height="22" as="geometry">
            <mxRectangle width="22" height="22" as="alternateBounds" />
          </mxGeometry>
        </mxCell>
        <mxCell id="73tQ1K4yN3Zxp4GSFfO6-66" value="0" style="shape=partialRectangle;html=1;whiteSpace=wrap;connectable=0;strokeColor=inherit;overflow=hidden;fillColor=none;top=0;left=0;bottom=0;right=0;pointerEvents=1;fontSize=16;fontFamily=Times New Roman;" vertex="1" parent="73tQ1K4yN3Zxp4GSFfO6-63">
          <mxGeometry x="67" width="22" height="22" as="geometry">
            <mxRectangle width="22" height="22" as="alternateBounds" />
          </mxGeometry>
        </mxCell>
        <mxCell id="73tQ1K4yN3Zxp4GSFfO6-67" value="0" style="shape=partialRectangle;html=1;whiteSpace=wrap;connectable=0;strokeColor=inherit;overflow=hidden;fillColor=none;top=0;left=0;bottom=0;right=0;pointerEvents=1;fontSize=16;fontFamily=Times New Roman;" vertex="1" parent="73tQ1K4yN3Zxp4GSFfO6-63">
          <mxGeometry x="89" width="22" height="22" as="geometry">
            <mxRectangle width="22" height="22" as="alternateBounds" />
          </mxGeometry>
        </mxCell>
        <mxCell id="73tQ1K4yN3Zxp4GSFfO6-68" value="1" style="shape=partialRectangle;html=1;whiteSpace=wrap;connectable=0;strokeColor=inherit;overflow=hidden;fillColor=none;top=0;left=0;bottom=0;right=0;pointerEvents=1;fontSize=16;fontFamily=Times New Roman;" vertex="1" parent="73tQ1K4yN3Zxp4GSFfO6-63">
          <mxGeometry x="111" width="22" height="22" as="geometry">
            <mxRectangle width="22" height="22" as="alternateBounds" />
          </mxGeometry>
        </mxCell>
        <mxCell id="73tQ1K4yN3Zxp4GSFfO6-69" value="0" style="shape=partialRectangle;html=1;whiteSpace=wrap;connectable=0;strokeColor=inherit;overflow=hidden;fillColor=none;top=0;left=0;bottom=0;right=0;pointerEvents=1;fontSize=16;fontFamily=Times New Roman;" vertex="1" parent="73tQ1K4yN3Zxp4GSFfO6-63">
          <mxGeometry x="133" width="22" height="22" as="geometry">
            <mxRectangle width="22" height="22" as="alternateBounds" />
          </mxGeometry>
        </mxCell>
        <mxCell id="73tQ1K4yN3Zxp4GSFfO6-70" value="0" style="shape=partialRectangle;html=1;whiteSpace=wrap;connectable=0;strokeColor=inherit;overflow=hidden;fillColor=none;top=0;left=0;bottom=0;right=0;pointerEvents=1;fontSize=16;fontFamily=Times New Roman;" vertex="1" parent="73tQ1K4yN3Zxp4GSFfO6-63">
          <mxGeometry x="155" width="22" height="22" as="geometry">
            <mxRectangle width="22" height="22" as="alternateBounds" />
          </mxGeometry>
        </mxCell>
        <mxCell id="73tQ1K4yN3Zxp4GSFfO6-167" value="0" style="shape=partialRectangle;html=1;whiteSpace=wrap;connectable=0;strokeColor=inherit;overflow=hidden;fillColor=none;top=0;left=0;bottom=0;right=0;pointerEvents=1;fontSize=16;fontFamily=Times New Roman;" vertex="1" parent="73tQ1K4yN3Zxp4GSFfO6-63">
          <mxGeometry x="177" width="23" height="22" as="geometry">
            <mxRectangle width="23" height="22" as="alternateBounds" />
          </mxGeometry>
        </mxCell>
        <mxCell id="73tQ1K4yN3Zxp4GSFfO6-71" style="shape=tableRow;horizontal=0;startSize=0;swimlaneHead=0;swimlaneBody=0;strokeColor=inherit;top=0;left=0;bottom=0;right=0;collapsible=0;dropTarget=0;fillColor=none;points=[[0,0.5],[1,0.5]];portConstraint=eastwest;fontSize=16;fontFamily=Times New Roman;" vertex="1" parent="73tQ1K4yN3Zxp4GSFfO6-62">
          <mxGeometry y="44" width="200" height="22" as="geometry" />
        </mxCell>
        <mxCell id="73tQ1K4yN3Zxp4GSFfO6-120" value="0" style="shape=partialRectangle;html=1;whiteSpace=wrap;connectable=0;strokeColor=inherit;overflow=hidden;fillColor=none;top=0;left=0;bottom=0;right=0;pointerEvents=1;fontSize=16;fontFamily=Times New Roman;" vertex="1" parent="73tQ1K4yN3Zxp4GSFfO6-71">
          <mxGeometry width="23" height="22" as="geometry">
            <mxRectangle width="23" height="22" as="alternateBounds" />
          </mxGeometry>
        </mxCell>
        <mxCell id="73tQ1K4yN3Zxp4GSFfO6-72" value="1" style="shape=partialRectangle;html=1;whiteSpace=wrap;connectable=0;strokeColor=inherit;overflow=hidden;fillColor=none;top=0;left=0;bottom=0;right=0;pointerEvents=1;fontSize=16;fontFamily=Times New Roman;" vertex="1" parent="73tQ1K4yN3Zxp4GSFfO6-71">
          <mxGeometry x="23" width="22" height="22" as="geometry">
            <mxRectangle width="22" height="22" as="alternateBounds" />
          </mxGeometry>
        </mxCell>
        <mxCell id="73tQ1K4yN3Zxp4GSFfO6-73" value="0" style="shape=partialRectangle;html=1;whiteSpace=wrap;connectable=0;strokeColor=inherit;overflow=hidden;fillColor=none;top=0;left=0;bottom=0;right=0;pointerEvents=1;fontSize=16;fontFamily=Times New Roman;" vertex="1" parent="73tQ1K4yN3Zxp4GSFfO6-71">
          <mxGeometry x="45" width="22" height="22" as="geometry">
            <mxRectangle width="22" height="22" as="alternateBounds" />
          </mxGeometry>
        </mxCell>
        <mxCell id="73tQ1K4yN3Zxp4GSFfO6-74" value="0" style="shape=partialRectangle;html=1;whiteSpace=wrap;connectable=0;strokeColor=inherit;overflow=hidden;fillColor=none;top=0;left=0;bottom=0;right=0;pointerEvents=1;fontSize=16;fontFamily=Times New Roman;" vertex="1" parent="73tQ1K4yN3Zxp4GSFfO6-71">
          <mxGeometry x="67" width="22" height="22" as="geometry">
            <mxRectangle width="22" height="22" as="alternateBounds" />
          </mxGeometry>
        </mxCell>
        <mxCell id="73tQ1K4yN3Zxp4GSFfO6-75" value="1" style="shape=partialRectangle;html=1;whiteSpace=wrap;connectable=0;strokeColor=inherit;overflow=hidden;fillColor=none;top=0;left=0;bottom=0;right=0;pointerEvents=1;fontSize=16;fontFamily=Times New Roman;" vertex="1" parent="73tQ1K4yN3Zxp4GSFfO6-71">
          <mxGeometry x="89" width="22" height="22" as="geometry">
            <mxRectangle width="22" height="22" as="alternateBounds" />
          </mxGeometry>
        </mxCell>
        <mxCell id="73tQ1K4yN3Zxp4GSFfO6-76" value="0" style="shape=partialRectangle;html=1;whiteSpace=wrap;connectable=0;strokeColor=inherit;overflow=hidden;fillColor=none;top=0;left=0;bottom=0;right=0;pointerEvents=1;fontSize=16;fontFamily=Times New Roman;" vertex="1" parent="73tQ1K4yN3Zxp4GSFfO6-71">
          <mxGeometry x="111" width="22" height="22" as="geometry">
            <mxRectangle width="22" height="22" as="alternateBounds" />
          </mxGeometry>
        </mxCell>
        <mxCell id="73tQ1K4yN3Zxp4GSFfO6-77" value="0" style="shape=partialRectangle;html=1;whiteSpace=wrap;connectable=0;strokeColor=inherit;overflow=hidden;fillColor=none;top=0;left=0;bottom=0;right=0;pointerEvents=1;fontSize=16;fontFamily=Times New Roman;" vertex="1" parent="73tQ1K4yN3Zxp4GSFfO6-71">
          <mxGeometry x="133" width="22" height="22" as="geometry">
            <mxRectangle width="22" height="22" as="alternateBounds" />
          </mxGeometry>
        </mxCell>
        <mxCell id="73tQ1K4yN3Zxp4GSFfO6-78" value="1" style="shape=partialRectangle;html=1;whiteSpace=wrap;connectable=0;strokeColor=inherit;overflow=hidden;fillColor=none;top=0;left=0;bottom=0;right=0;pointerEvents=1;fontSize=16;fontFamily=Times New Roman;" vertex="1" parent="73tQ1K4yN3Zxp4GSFfO6-71">
          <mxGeometry x="155" width="22" height="22" as="geometry">
            <mxRectangle width="22" height="22" as="alternateBounds" />
          </mxGeometry>
        </mxCell>
        <mxCell id="73tQ1K4yN3Zxp4GSFfO6-168" value="0" style="shape=partialRectangle;html=1;whiteSpace=wrap;connectable=0;strokeColor=inherit;overflow=hidden;fillColor=none;top=0;left=0;bottom=0;right=0;pointerEvents=1;fontSize=16;fontFamily=Times New Roman;" vertex="1" parent="73tQ1K4yN3Zxp4GSFfO6-71">
          <mxGeometry x="177" width="23" height="22" as="geometry">
            <mxRectangle width="23" height="22" as="alternateBounds" />
          </mxGeometry>
        </mxCell>
        <mxCell id="73tQ1K4yN3Zxp4GSFfO6-79" style="shape=tableRow;horizontal=0;startSize=0;swimlaneHead=0;swimlaneBody=0;strokeColor=inherit;top=0;left=0;bottom=0;right=0;collapsible=0;dropTarget=0;fillColor=none;points=[[0,0.5],[1,0.5]];portConstraint=eastwest;fontSize=16;fontFamily=Times New Roman;" vertex="1" parent="73tQ1K4yN3Zxp4GSFfO6-62">
          <mxGeometry y="66" width="200" height="22" as="geometry" />
        </mxCell>
        <mxCell id="73tQ1K4yN3Zxp4GSFfO6-121" value="0" style="shape=partialRectangle;html=1;whiteSpace=wrap;connectable=0;strokeColor=inherit;overflow=hidden;fillColor=none;top=0;left=0;bottom=0;right=0;pointerEvents=1;fontSize=16;fontFamily=Times New Roman;" vertex="1" parent="73tQ1K4yN3Zxp4GSFfO6-79">
          <mxGeometry width="23" height="22" as="geometry">
            <mxRectangle width="23" height="22" as="alternateBounds" />
          </mxGeometry>
        </mxCell>
        <mxCell id="73tQ1K4yN3Zxp4GSFfO6-80" value="0" style="shape=partialRectangle;html=1;whiteSpace=wrap;connectable=0;strokeColor=inherit;overflow=hidden;fillColor=none;top=0;left=0;bottom=0;right=0;pointerEvents=1;fontSize=16;fontFamily=Times New Roman;" vertex="1" parent="73tQ1K4yN3Zxp4GSFfO6-79">
          <mxGeometry x="23" width="22" height="22" as="geometry">
            <mxRectangle width="22" height="22" as="alternateBounds" />
          </mxGeometry>
        </mxCell>
        <mxCell id="73tQ1K4yN3Zxp4GSFfO6-81" value="0" style="shape=partialRectangle;html=1;whiteSpace=wrap;connectable=0;strokeColor=inherit;overflow=hidden;fillColor=none;top=0;left=0;bottom=0;right=0;pointerEvents=1;fontSize=16;fontFamily=Times New Roman;" vertex="1" parent="73tQ1K4yN3Zxp4GSFfO6-79">
          <mxGeometry x="45" width="22" height="22" as="geometry">
            <mxRectangle width="22" height="22" as="alternateBounds" />
          </mxGeometry>
        </mxCell>
        <mxCell id="73tQ1K4yN3Zxp4GSFfO6-82" value="1" style="shape=partialRectangle;html=1;whiteSpace=wrap;connectable=0;strokeColor=inherit;overflow=hidden;fillColor=none;top=0;left=0;bottom=0;right=0;pointerEvents=1;fontSize=16;fontFamily=Times New Roman;" vertex="1" parent="73tQ1K4yN3Zxp4GSFfO6-79">
          <mxGeometry x="67" width="22" height="22" as="geometry">
            <mxRectangle width="22" height="22" as="alternateBounds" />
          </mxGeometry>
        </mxCell>
        <mxCell id="73tQ1K4yN3Zxp4GSFfO6-83" value="0" style="shape=partialRectangle;html=1;whiteSpace=wrap;connectable=0;strokeColor=inherit;overflow=hidden;fillColor=none;top=0;left=0;bottom=0;right=0;pointerEvents=1;fontSize=16;fontFamily=Times New Roman;" vertex="1" parent="73tQ1K4yN3Zxp4GSFfO6-79">
          <mxGeometry x="89" width="22" height="22" as="geometry">
            <mxRectangle width="22" height="22" as="alternateBounds" />
          </mxGeometry>
        </mxCell>
        <mxCell id="73tQ1K4yN3Zxp4GSFfO6-84" value="1" style="shape=partialRectangle;html=1;whiteSpace=wrap;connectable=0;strokeColor=inherit;overflow=hidden;fillColor=none;top=0;left=0;bottom=0;right=0;pointerEvents=1;fontSize=16;fontFamily=Times New Roman;" vertex="1" parent="73tQ1K4yN3Zxp4GSFfO6-79">
          <mxGeometry x="111" width="22" height="22" as="geometry">
            <mxRectangle width="22" height="22" as="alternateBounds" />
          </mxGeometry>
        </mxCell>
        <mxCell id="73tQ1K4yN3Zxp4GSFfO6-85" value="0" style="shape=partialRectangle;html=1;whiteSpace=wrap;connectable=0;strokeColor=inherit;overflow=hidden;fillColor=none;top=0;left=0;bottom=0;right=0;pointerEvents=1;fontSize=16;fontFamily=Times New Roman;" vertex="1" parent="73tQ1K4yN3Zxp4GSFfO6-79">
          <mxGeometry x="133" width="22" height="22" as="geometry">
            <mxRectangle width="22" height="22" as="alternateBounds" />
          </mxGeometry>
        </mxCell>
        <mxCell id="73tQ1K4yN3Zxp4GSFfO6-86" value="0" style="shape=partialRectangle;html=1;whiteSpace=wrap;connectable=0;strokeColor=inherit;overflow=hidden;fillColor=none;top=0;left=0;bottom=0;right=0;pointerEvents=1;fontSize=16;fontFamily=Times New Roman;" vertex="1" parent="73tQ1K4yN3Zxp4GSFfO6-79">
          <mxGeometry x="155" width="22" height="22" as="geometry">
            <mxRectangle width="22" height="22" as="alternateBounds" />
          </mxGeometry>
        </mxCell>
        <mxCell id="73tQ1K4yN3Zxp4GSFfO6-169" value="0" style="shape=partialRectangle;html=1;whiteSpace=wrap;connectable=0;strokeColor=inherit;overflow=hidden;fillColor=none;top=0;left=0;bottom=0;right=0;pointerEvents=1;fontSize=16;fontFamily=Times New Roman;" vertex="1" parent="73tQ1K4yN3Zxp4GSFfO6-79">
          <mxGeometry x="177" width="23" height="22" as="geometry">
            <mxRectangle width="23" height="22" as="alternateBounds" />
          </mxGeometry>
        </mxCell>
        <mxCell id="73tQ1K4yN3Zxp4GSFfO6-87" style="shape=tableRow;horizontal=0;startSize=0;swimlaneHead=0;swimlaneBody=0;strokeColor=inherit;top=0;left=0;bottom=0;right=0;collapsible=0;dropTarget=0;fillColor=none;points=[[0,0.5],[1,0.5]];portConstraint=eastwest;fontSize=16;fontFamily=Times New Roman;" vertex="1" parent="73tQ1K4yN3Zxp4GSFfO6-62">
          <mxGeometry y="88" width="200" height="23" as="geometry" />
        </mxCell>
        <mxCell id="73tQ1K4yN3Zxp4GSFfO6-122" value="0" style="shape=partialRectangle;html=1;whiteSpace=wrap;connectable=0;strokeColor=inherit;overflow=hidden;fillColor=none;top=0;left=0;bottom=0;right=0;pointerEvents=1;fontSize=16;fontFamily=Times New Roman;" vertex="1" parent="73tQ1K4yN3Zxp4GSFfO6-87">
          <mxGeometry width="23" height="23" as="geometry">
            <mxRectangle width="23" height="23" as="alternateBounds" />
          </mxGeometry>
        </mxCell>
        <mxCell id="73tQ1K4yN3Zxp4GSFfO6-88" value="0" style="shape=partialRectangle;html=1;whiteSpace=wrap;connectable=0;strokeColor=inherit;overflow=hidden;fillColor=none;top=0;left=0;bottom=0;right=0;pointerEvents=1;fontSize=16;fontFamily=Times New Roman;" vertex="1" parent="73tQ1K4yN3Zxp4GSFfO6-87">
          <mxGeometry x="23" width="22" height="23" as="geometry">
            <mxRectangle width="22" height="23" as="alternateBounds" />
          </mxGeometry>
        </mxCell>
        <mxCell id="73tQ1K4yN3Zxp4GSFfO6-89" value="1" style="shape=partialRectangle;html=1;whiteSpace=wrap;connectable=0;strokeColor=inherit;overflow=hidden;fillColor=none;top=0;left=0;bottom=0;right=0;pointerEvents=1;fontSize=16;fontFamily=Times New Roman;" vertex="1" parent="73tQ1K4yN3Zxp4GSFfO6-87">
          <mxGeometry x="45" width="22" height="23" as="geometry">
            <mxRectangle width="22" height="23" as="alternateBounds" />
          </mxGeometry>
        </mxCell>
        <mxCell id="73tQ1K4yN3Zxp4GSFfO6-90" value="1" style="shape=partialRectangle;html=1;whiteSpace=wrap;connectable=0;strokeColor=inherit;overflow=hidden;fillColor=none;top=0;left=0;bottom=0;right=0;pointerEvents=1;fontSize=16;fontFamily=Times New Roman;" vertex="1" parent="73tQ1K4yN3Zxp4GSFfO6-87">
          <mxGeometry x="67" width="22" height="23" as="geometry">
            <mxRectangle width="22" height="23" as="alternateBounds" />
          </mxGeometry>
        </mxCell>
        <mxCell id="73tQ1K4yN3Zxp4GSFfO6-91" value="0" style="shape=partialRectangle;html=1;whiteSpace=wrap;connectable=0;strokeColor=inherit;overflow=hidden;fillColor=none;top=0;left=0;bottom=0;right=0;pointerEvents=1;fontSize=16;fontFamily=Times New Roman;" vertex="1" parent="73tQ1K4yN3Zxp4GSFfO6-87">
          <mxGeometry x="89" width="22" height="23" as="geometry">
            <mxRectangle width="22" height="23" as="alternateBounds" />
          </mxGeometry>
        </mxCell>
        <mxCell id="73tQ1K4yN3Zxp4GSFfO6-92" value="0" style="shape=partialRectangle;html=1;whiteSpace=wrap;connectable=0;strokeColor=inherit;overflow=hidden;fillColor=none;top=0;left=0;bottom=0;right=0;pointerEvents=1;fontSize=16;fontFamily=Times New Roman;" vertex="1" parent="73tQ1K4yN3Zxp4GSFfO6-87">
          <mxGeometry x="111" width="22" height="23" as="geometry">
            <mxRectangle width="22" height="23" as="alternateBounds" />
          </mxGeometry>
        </mxCell>
        <mxCell id="73tQ1K4yN3Zxp4GSFfO6-93" value="1" style="shape=partialRectangle;html=1;whiteSpace=wrap;connectable=0;strokeColor=inherit;overflow=hidden;fillColor=none;top=0;left=0;bottom=0;right=0;pointerEvents=1;fontSize=16;fontFamily=Times New Roman;" vertex="1" parent="73tQ1K4yN3Zxp4GSFfO6-87">
          <mxGeometry x="133" width="22" height="23" as="geometry">
            <mxRectangle width="22" height="23" as="alternateBounds" />
          </mxGeometry>
        </mxCell>
        <mxCell id="73tQ1K4yN3Zxp4GSFfO6-94" value="0" style="shape=partialRectangle;html=1;whiteSpace=wrap;connectable=0;strokeColor=inherit;overflow=hidden;fillColor=none;top=0;left=0;bottom=0;right=0;pointerEvents=1;fontSize=16;fontFamily=Times New Roman;" vertex="1" parent="73tQ1K4yN3Zxp4GSFfO6-87">
          <mxGeometry x="155" width="22" height="23" as="geometry">
            <mxRectangle width="22" height="23" as="alternateBounds" />
          </mxGeometry>
        </mxCell>
        <mxCell id="73tQ1K4yN3Zxp4GSFfO6-170" value="0" style="shape=partialRectangle;html=1;whiteSpace=wrap;connectable=0;strokeColor=inherit;overflow=hidden;fillColor=none;top=0;left=0;bottom=0;right=0;pointerEvents=1;fontSize=16;fontFamily=Times New Roman;" vertex="1" parent="73tQ1K4yN3Zxp4GSFfO6-87">
          <mxGeometry x="177" width="23" height="23" as="geometry">
            <mxRectangle width="23" height="23" as="alternateBounds" />
          </mxGeometry>
        </mxCell>
        <mxCell id="73tQ1K4yN3Zxp4GSFfO6-95" value="" style="shape=tableRow;horizontal=0;startSize=0;swimlaneHead=0;swimlaneBody=0;strokeColor=inherit;top=0;left=0;bottom=0;right=0;collapsible=0;dropTarget=0;fillColor=none;points=[[0,0.5],[1,0.5]];portConstraint=eastwest;fontSize=16;fontFamily=Times New Roman;" vertex="1" parent="73tQ1K4yN3Zxp4GSFfO6-62">
          <mxGeometry y="111" width="200" height="22" as="geometry" />
        </mxCell>
        <mxCell id="73tQ1K4yN3Zxp4GSFfO6-123" value="0" style="shape=partialRectangle;html=1;whiteSpace=wrap;connectable=0;strokeColor=inherit;overflow=hidden;fillColor=none;top=0;left=0;bottom=0;right=0;pointerEvents=1;fontSize=16;fontFamily=Times New Roman;" vertex="1" parent="73tQ1K4yN3Zxp4GSFfO6-95">
          <mxGeometry width="23" height="22" as="geometry">
            <mxRectangle width="23" height="22" as="alternateBounds" />
          </mxGeometry>
        </mxCell>
        <mxCell id="73tQ1K4yN3Zxp4GSFfO6-96" value="1" style="shape=partialRectangle;html=1;whiteSpace=wrap;connectable=0;strokeColor=inherit;overflow=hidden;fillColor=none;top=0;left=0;bottom=0;right=0;pointerEvents=1;fontSize=16;fontFamily=Times New Roman;" vertex="1" parent="73tQ1K4yN3Zxp4GSFfO6-95">
          <mxGeometry x="23" width="22" height="22" as="geometry">
            <mxRectangle width="22" height="22" as="alternateBounds" />
          </mxGeometry>
        </mxCell>
        <mxCell id="73tQ1K4yN3Zxp4GSFfO6-97" value="0" style="shape=partialRectangle;html=1;whiteSpace=wrap;connectable=0;strokeColor=inherit;overflow=hidden;fillColor=none;top=0;left=0;bottom=0;right=0;pointerEvents=1;fontSize=16;fontFamily=Times New Roman;" vertex="1" parent="73tQ1K4yN3Zxp4GSFfO6-95">
          <mxGeometry x="45" width="22" height="22" as="geometry">
            <mxRectangle width="22" height="22" as="alternateBounds" />
          </mxGeometry>
        </mxCell>
        <mxCell id="73tQ1K4yN3Zxp4GSFfO6-98" value="1" style="shape=partialRectangle;html=1;whiteSpace=wrap;connectable=0;strokeColor=inherit;overflow=hidden;fillColor=none;top=0;left=0;bottom=0;right=0;pointerEvents=1;fontSize=16;fontFamily=Times New Roman;" vertex="1" parent="73tQ1K4yN3Zxp4GSFfO6-95">
          <mxGeometry x="67" width="22" height="22" as="geometry">
            <mxRectangle width="22" height="22" as="alternateBounds" />
          </mxGeometry>
        </mxCell>
        <mxCell id="73tQ1K4yN3Zxp4GSFfO6-99" value="0" style="shape=partialRectangle;html=1;whiteSpace=wrap;connectable=0;strokeColor=inherit;overflow=hidden;fillColor=none;top=0;left=0;bottom=0;right=0;pointerEvents=1;fontSize=16;fontFamily=Times New Roman;" vertex="1" parent="73tQ1K4yN3Zxp4GSFfO6-95">
          <mxGeometry x="89" width="22" height="22" as="geometry">
            <mxRectangle width="22" height="22" as="alternateBounds" />
          </mxGeometry>
        </mxCell>
        <mxCell id="73tQ1K4yN3Zxp4GSFfO6-100" value="0" style="shape=partialRectangle;html=1;whiteSpace=wrap;connectable=0;strokeColor=inherit;overflow=hidden;fillColor=none;top=0;left=0;bottom=0;right=0;pointerEvents=1;fontSize=16;fontFamily=Times New Roman;" vertex="1" parent="73tQ1K4yN3Zxp4GSFfO6-95">
          <mxGeometry x="111" width="22" height="22" as="geometry">
            <mxRectangle width="22" height="22" as="alternateBounds" />
          </mxGeometry>
        </mxCell>
        <mxCell id="73tQ1K4yN3Zxp4GSFfO6-101" value="1" style="shape=partialRectangle;html=1;whiteSpace=wrap;connectable=0;strokeColor=inherit;overflow=hidden;fillColor=none;top=0;left=0;bottom=0;right=0;pointerEvents=1;fontSize=16;fontFamily=Times New Roman;" vertex="1" parent="73tQ1K4yN3Zxp4GSFfO6-95">
          <mxGeometry x="133" width="22" height="22" as="geometry">
            <mxRectangle width="22" height="22" as="alternateBounds" />
          </mxGeometry>
        </mxCell>
        <mxCell id="73tQ1K4yN3Zxp4GSFfO6-102" value="0" style="shape=partialRectangle;html=1;whiteSpace=wrap;connectable=0;strokeColor=inherit;overflow=hidden;fillColor=none;top=0;left=0;bottom=0;right=0;pointerEvents=1;fontSize=16;fontFamily=Times New Roman;" vertex="1" parent="73tQ1K4yN3Zxp4GSFfO6-95">
          <mxGeometry x="155" width="22" height="22" as="geometry">
            <mxRectangle width="22" height="22" as="alternateBounds" />
          </mxGeometry>
        </mxCell>
        <mxCell id="73tQ1K4yN3Zxp4GSFfO6-171" value="0" style="shape=partialRectangle;html=1;whiteSpace=wrap;connectable=0;strokeColor=inherit;overflow=hidden;fillColor=none;top=0;left=0;bottom=0;right=0;pointerEvents=1;fontSize=16;fontFamily=Times New Roman;" vertex="1" parent="73tQ1K4yN3Zxp4GSFfO6-95">
          <mxGeometry x="177" width="23" height="22" as="geometry">
            <mxRectangle width="23" height="22" as="alternateBounds" />
          </mxGeometry>
        </mxCell>
        <mxCell id="73tQ1K4yN3Zxp4GSFfO6-103" value="" style="shape=tableRow;horizontal=0;startSize=0;swimlaneHead=0;swimlaneBody=0;strokeColor=inherit;top=0;left=0;bottom=0;right=0;collapsible=0;dropTarget=0;fillColor=none;points=[[0,0.5],[1,0.5]];portConstraint=eastwest;fontSize=16;fontFamily=Times New Roman;" vertex="1" parent="73tQ1K4yN3Zxp4GSFfO6-62">
          <mxGeometry y="133" width="200" height="22" as="geometry" />
        </mxCell>
        <mxCell id="73tQ1K4yN3Zxp4GSFfO6-124" value="0" style="shape=partialRectangle;html=1;whiteSpace=wrap;connectable=0;strokeColor=inherit;overflow=hidden;fillColor=none;top=0;left=0;bottom=0;right=0;pointerEvents=1;fontSize=16;fontFamily=Times New Roman;" vertex="1" parent="73tQ1K4yN3Zxp4GSFfO6-103">
          <mxGeometry width="23" height="22" as="geometry">
            <mxRectangle width="23" height="22" as="alternateBounds" />
          </mxGeometry>
        </mxCell>
        <mxCell id="73tQ1K4yN3Zxp4GSFfO6-104" value="0" style="shape=partialRectangle;html=1;whiteSpace=wrap;connectable=0;strokeColor=inherit;overflow=hidden;fillColor=none;top=0;left=0;bottom=0;right=0;pointerEvents=1;fontSize=16;fontFamily=Times New Roman;" vertex="1" parent="73tQ1K4yN3Zxp4GSFfO6-103">
          <mxGeometry x="23" width="22" height="22" as="geometry">
            <mxRectangle width="22" height="22" as="alternateBounds" />
          </mxGeometry>
        </mxCell>
        <mxCell id="73tQ1K4yN3Zxp4GSFfO6-105" value="0" style="shape=partialRectangle;html=1;whiteSpace=wrap;connectable=0;strokeColor=inherit;overflow=hidden;fillColor=none;top=0;left=0;bottom=0;right=0;pointerEvents=1;fontSize=16;fontFamily=Times New Roman;" vertex="1" parent="73tQ1K4yN3Zxp4GSFfO6-103">
          <mxGeometry x="45" width="22" height="22" as="geometry">
            <mxRectangle width="22" height="22" as="alternateBounds" />
          </mxGeometry>
        </mxCell>
        <mxCell id="73tQ1K4yN3Zxp4GSFfO6-106" value="1" style="shape=partialRectangle;html=1;whiteSpace=wrap;connectable=0;strokeColor=inherit;overflow=hidden;fillColor=none;top=0;left=0;bottom=0;right=0;pointerEvents=1;fontSize=16;fontFamily=Times New Roman;" vertex="1" parent="73tQ1K4yN3Zxp4GSFfO6-103">
          <mxGeometry x="67" width="22" height="22" as="geometry">
            <mxRectangle width="22" height="22" as="alternateBounds" />
          </mxGeometry>
        </mxCell>
        <mxCell id="73tQ1K4yN3Zxp4GSFfO6-107" value="0" style="shape=partialRectangle;html=1;whiteSpace=wrap;connectable=0;strokeColor=inherit;overflow=hidden;fillColor=none;top=0;left=0;bottom=0;right=0;pointerEvents=1;fontSize=16;fontFamily=Times New Roman;" vertex="1" parent="73tQ1K4yN3Zxp4GSFfO6-103">
          <mxGeometry x="89" width="22" height="22" as="geometry">
            <mxRectangle width="22" height="22" as="alternateBounds" />
          </mxGeometry>
        </mxCell>
        <mxCell id="73tQ1K4yN3Zxp4GSFfO6-108" value="0" style="shape=partialRectangle;html=1;whiteSpace=wrap;connectable=0;strokeColor=inherit;overflow=hidden;fillColor=none;top=0;left=0;bottom=0;right=0;pointerEvents=1;fontSize=16;fontFamily=Times New Roman;" vertex="1" parent="73tQ1K4yN3Zxp4GSFfO6-103">
          <mxGeometry x="111" width="22" height="22" as="geometry">
            <mxRectangle width="22" height="22" as="alternateBounds" />
          </mxGeometry>
        </mxCell>
        <mxCell id="73tQ1K4yN3Zxp4GSFfO6-109" value="1" style="shape=partialRectangle;html=1;whiteSpace=wrap;connectable=0;strokeColor=inherit;overflow=hidden;fillColor=none;top=0;left=0;bottom=0;right=0;pointerEvents=1;fontSize=16;fontFamily=Times New Roman;" vertex="1" parent="73tQ1K4yN3Zxp4GSFfO6-103">
          <mxGeometry x="133" width="22" height="22" as="geometry">
            <mxRectangle width="22" height="22" as="alternateBounds" />
          </mxGeometry>
        </mxCell>
        <mxCell id="73tQ1K4yN3Zxp4GSFfO6-110" value="0" style="shape=partialRectangle;html=1;whiteSpace=wrap;connectable=0;strokeColor=inherit;overflow=hidden;fillColor=none;top=0;left=0;bottom=0;right=0;pointerEvents=1;fontSize=16;fontFamily=Times New Roman;" vertex="1" parent="73tQ1K4yN3Zxp4GSFfO6-103">
          <mxGeometry x="155" width="22" height="22" as="geometry">
            <mxRectangle width="22" height="22" as="alternateBounds" />
          </mxGeometry>
        </mxCell>
        <mxCell id="73tQ1K4yN3Zxp4GSFfO6-172" value="0" style="shape=partialRectangle;html=1;whiteSpace=wrap;connectable=0;strokeColor=inherit;overflow=hidden;fillColor=none;top=0;left=0;bottom=0;right=0;pointerEvents=1;fontSize=16;fontFamily=Times New Roman;" vertex="1" parent="73tQ1K4yN3Zxp4GSFfO6-103">
          <mxGeometry x="177" width="23" height="22" as="geometry">
            <mxRectangle width="23" height="22" as="alternateBounds" />
          </mxGeometry>
        </mxCell>
        <mxCell id="73tQ1K4yN3Zxp4GSFfO6-111" value="" style="shape=tableRow;horizontal=0;startSize=0;swimlaneHead=0;swimlaneBody=0;strokeColor=inherit;top=0;left=0;bottom=0;right=0;collapsible=0;dropTarget=0;fillColor=none;points=[[0,0.5],[1,0.5]];portConstraint=eastwest;fontSize=16;fontFamily=Times New Roman;" vertex="1" parent="73tQ1K4yN3Zxp4GSFfO6-62">
          <mxGeometry y="155" width="200" height="22" as="geometry" />
        </mxCell>
        <mxCell id="73tQ1K4yN3Zxp4GSFfO6-125" value="0" style="shape=partialRectangle;html=1;whiteSpace=wrap;connectable=0;strokeColor=inherit;overflow=hidden;fillColor=none;top=0;left=0;bottom=0;right=0;pointerEvents=1;fontSize=16;fontFamily=Times New Roman;" vertex="1" parent="73tQ1K4yN3Zxp4GSFfO6-111">
          <mxGeometry width="23" height="22" as="geometry">
            <mxRectangle width="23" height="22" as="alternateBounds" />
          </mxGeometry>
        </mxCell>
        <mxCell id="73tQ1K4yN3Zxp4GSFfO6-112" value="0" style="shape=partialRectangle;html=1;whiteSpace=wrap;connectable=0;strokeColor=inherit;overflow=hidden;fillColor=none;top=0;left=0;bottom=0;right=0;pointerEvents=1;fontSize=16;fontFamily=Times New Roman;" vertex="1" parent="73tQ1K4yN3Zxp4GSFfO6-111">
          <mxGeometry x="23" width="22" height="22" as="geometry">
            <mxRectangle width="22" height="22" as="alternateBounds" />
          </mxGeometry>
        </mxCell>
        <mxCell id="73tQ1K4yN3Zxp4GSFfO6-113" value="0" style="shape=partialRectangle;html=1;whiteSpace=wrap;connectable=0;strokeColor=inherit;overflow=hidden;fillColor=none;top=0;left=0;bottom=0;right=0;pointerEvents=1;fontSize=16;fontFamily=Times New Roman;" vertex="1" parent="73tQ1K4yN3Zxp4GSFfO6-111">
          <mxGeometry x="45" width="22" height="22" as="geometry">
            <mxRectangle width="22" height="22" as="alternateBounds" />
          </mxGeometry>
        </mxCell>
        <mxCell id="73tQ1K4yN3Zxp4GSFfO6-114" value="0" style="shape=partialRectangle;html=1;whiteSpace=wrap;connectable=0;strokeColor=inherit;overflow=hidden;fillColor=none;top=0;left=0;bottom=0;right=0;pointerEvents=1;fontSize=16;fontFamily=Times New Roman;" vertex="1" parent="73tQ1K4yN3Zxp4GSFfO6-111">
          <mxGeometry x="67" width="22" height="22" as="geometry">
            <mxRectangle width="22" height="22" as="alternateBounds" />
          </mxGeometry>
        </mxCell>
        <mxCell id="73tQ1K4yN3Zxp4GSFfO6-115" value="1" style="shape=partialRectangle;html=1;whiteSpace=wrap;connectable=0;strokeColor=inherit;overflow=hidden;fillColor=none;top=0;left=0;bottom=0;right=0;pointerEvents=1;fontSize=16;fontFamily=Times New Roman;" vertex="1" parent="73tQ1K4yN3Zxp4GSFfO6-111">
          <mxGeometry x="89" width="22" height="22" as="geometry">
            <mxRectangle width="22" height="22" as="alternateBounds" />
          </mxGeometry>
        </mxCell>
        <mxCell id="73tQ1K4yN3Zxp4GSFfO6-116" value="1" style="shape=partialRectangle;html=1;whiteSpace=wrap;connectable=0;strokeColor=inherit;overflow=hidden;fillColor=none;top=0;left=0;bottom=0;right=0;pointerEvents=1;fontSize=16;fontFamily=Times New Roman;" vertex="1" parent="73tQ1K4yN3Zxp4GSFfO6-111">
          <mxGeometry x="111" width="22" height="22" as="geometry">
            <mxRectangle width="22" height="22" as="alternateBounds" />
          </mxGeometry>
        </mxCell>
        <mxCell id="73tQ1K4yN3Zxp4GSFfO6-117" value="0" style="shape=partialRectangle;html=1;whiteSpace=wrap;connectable=0;strokeColor=inherit;overflow=hidden;fillColor=none;top=0;left=0;bottom=0;right=0;pointerEvents=1;fontSize=16;fontFamily=Times New Roman;" vertex="1" parent="73tQ1K4yN3Zxp4GSFfO6-111">
          <mxGeometry x="133" width="22" height="22" as="geometry">
            <mxRectangle width="22" height="22" as="alternateBounds" />
          </mxGeometry>
        </mxCell>
        <mxCell id="73tQ1K4yN3Zxp4GSFfO6-118" value="1" style="shape=partialRectangle;html=1;whiteSpace=wrap;connectable=0;strokeColor=inherit;overflow=hidden;fillColor=none;top=0;left=0;bottom=0;right=0;pointerEvents=1;fontSize=16;fontFamily=Times New Roman;" vertex="1" parent="73tQ1K4yN3Zxp4GSFfO6-111">
          <mxGeometry x="155" width="22" height="22" as="geometry">
            <mxRectangle width="22" height="22" as="alternateBounds" />
          </mxGeometry>
        </mxCell>
        <mxCell id="73tQ1K4yN3Zxp4GSFfO6-173" value="0" style="shape=partialRectangle;html=1;whiteSpace=wrap;connectable=0;strokeColor=inherit;overflow=hidden;fillColor=none;top=0;left=0;bottom=0;right=0;pointerEvents=1;fontSize=16;fontFamily=Times New Roman;" vertex="1" parent="73tQ1K4yN3Zxp4GSFfO6-111">
          <mxGeometry x="177" width="23" height="22" as="geometry">
            <mxRectangle width="23" height="22" as="alternateBounds" />
          </mxGeometry>
        </mxCell>
        <mxCell id="73tQ1K4yN3Zxp4GSFfO6-184" style="shape=tableRow;horizontal=0;startSize=0;swimlaneHead=0;swimlaneBody=0;strokeColor=inherit;top=0;left=0;bottom=0;right=0;collapsible=0;dropTarget=0;fillColor=none;points=[[0,0.5],[1,0.5]];portConstraint=eastwest;fontSize=16;fontFamily=Times New Roman;" vertex="1" parent="73tQ1K4yN3Zxp4GSFfO6-62">
          <mxGeometry y="177" width="200" height="22" as="geometry" />
        </mxCell>
        <mxCell id="73tQ1K4yN3Zxp4GSFfO6-185" value="0" style="shape=partialRectangle;html=1;whiteSpace=wrap;connectable=0;strokeColor=inherit;overflow=hidden;fillColor=none;top=0;left=0;bottom=0;right=0;pointerEvents=1;fontSize=16;fontFamily=Times New Roman;" vertex="1" parent="73tQ1K4yN3Zxp4GSFfO6-184">
          <mxGeometry width="23" height="22" as="geometry">
            <mxRectangle width="23" height="22" as="alternateBounds" />
          </mxGeometry>
        </mxCell>
        <mxCell id="73tQ1K4yN3Zxp4GSFfO6-186" value="0" style="shape=partialRectangle;html=1;whiteSpace=wrap;connectable=0;strokeColor=inherit;overflow=hidden;fillColor=none;top=0;left=0;bottom=0;right=0;pointerEvents=1;fontSize=16;fontFamily=Times New Roman;" vertex="1" parent="73tQ1K4yN3Zxp4GSFfO6-184">
          <mxGeometry x="23" width="22" height="22" as="geometry">
            <mxRectangle width="22" height="22" as="alternateBounds" />
          </mxGeometry>
        </mxCell>
        <mxCell id="73tQ1K4yN3Zxp4GSFfO6-187" value="0" style="shape=partialRectangle;html=1;whiteSpace=wrap;connectable=0;strokeColor=inherit;overflow=hidden;fillColor=none;top=0;left=0;bottom=0;right=0;pointerEvents=1;fontSize=16;fontFamily=Times New Roman;" vertex="1" parent="73tQ1K4yN3Zxp4GSFfO6-184">
          <mxGeometry x="45" width="22" height="22" as="geometry">
            <mxRectangle width="22" height="22" as="alternateBounds" />
          </mxGeometry>
        </mxCell>
        <mxCell id="73tQ1K4yN3Zxp4GSFfO6-188" value="0" style="shape=partialRectangle;html=1;whiteSpace=wrap;connectable=0;strokeColor=inherit;overflow=hidden;fillColor=none;top=0;left=0;bottom=0;right=0;pointerEvents=1;fontSize=16;fontFamily=Times New Roman;" vertex="1" parent="73tQ1K4yN3Zxp4GSFfO6-184">
          <mxGeometry x="67" width="22" height="22" as="geometry">
            <mxRectangle width="22" height="22" as="alternateBounds" />
          </mxGeometry>
        </mxCell>
        <mxCell id="73tQ1K4yN3Zxp4GSFfO6-189" value="0" style="shape=partialRectangle;html=1;whiteSpace=wrap;connectable=0;strokeColor=inherit;overflow=hidden;fillColor=none;top=0;left=0;bottom=0;right=0;pointerEvents=1;fontSize=16;fontFamily=Times New Roman;" vertex="1" parent="73tQ1K4yN3Zxp4GSFfO6-184">
          <mxGeometry x="89" width="22" height="22" as="geometry">
            <mxRectangle width="22" height="22" as="alternateBounds" />
          </mxGeometry>
        </mxCell>
        <mxCell id="73tQ1K4yN3Zxp4GSFfO6-190" value="0" style="shape=partialRectangle;html=1;whiteSpace=wrap;connectable=0;strokeColor=inherit;overflow=hidden;fillColor=none;top=0;left=0;bottom=0;right=0;pointerEvents=1;fontSize=16;fontFamily=Times New Roman;" vertex="1" parent="73tQ1K4yN3Zxp4GSFfO6-184">
          <mxGeometry x="111" width="22" height="22" as="geometry">
            <mxRectangle width="22" height="22" as="alternateBounds" />
          </mxGeometry>
        </mxCell>
        <mxCell id="73tQ1K4yN3Zxp4GSFfO6-191" value="0" style="shape=partialRectangle;html=1;whiteSpace=wrap;connectable=0;strokeColor=inherit;overflow=hidden;fillColor=none;top=0;left=0;bottom=0;right=0;pointerEvents=1;fontSize=16;fontFamily=Times New Roman;" vertex="1" parent="73tQ1K4yN3Zxp4GSFfO6-184">
          <mxGeometry x="133" width="22" height="22" as="geometry">
            <mxRectangle width="22" height="22" as="alternateBounds" />
          </mxGeometry>
        </mxCell>
        <mxCell id="73tQ1K4yN3Zxp4GSFfO6-192" value="0" style="shape=partialRectangle;html=1;whiteSpace=wrap;connectable=0;strokeColor=inherit;overflow=hidden;fillColor=none;top=0;left=0;bottom=0;right=0;pointerEvents=1;fontSize=16;fontFamily=Times New Roman;" vertex="1" parent="73tQ1K4yN3Zxp4GSFfO6-184">
          <mxGeometry x="155" width="22" height="22" as="geometry">
            <mxRectangle width="22" height="22" as="alternateBounds" />
          </mxGeometry>
        </mxCell>
        <mxCell id="73tQ1K4yN3Zxp4GSFfO6-193" value="0" style="shape=partialRectangle;html=1;whiteSpace=wrap;connectable=0;strokeColor=inherit;overflow=hidden;fillColor=none;top=0;left=0;bottom=0;right=0;pointerEvents=1;fontSize=16;fontFamily=Times New Roman;" vertex="1" parent="73tQ1K4yN3Zxp4GSFfO6-184">
          <mxGeometry x="177" width="23" height="22" as="geometry">
            <mxRectangle width="23" height="22" as="alternateBounds" />
          </mxGeometry>
        </mxCell>
        <mxCell id="73tQ1K4yN3Zxp4GSFfO6-292" value="" style="shape=table;startSize=0;container=1;collapsible=0;childLayout=tableLayout;fontSize=16;fontFamily=Times New Roman;swimlaneLine=1;" vertex="1" parent="1">
          <mxGeometry x="570" y="141" width="200" height="199" as="geometry" />
        </mxCell>
        <mxCell id="73tQ1K4yN3Zxp4GSFfO6-293" style="shape=tableRow;horizontal=0;startSize=0;swimlaneHead=0;swimlaneBody=0;strokeColor=inherit;top=0;left=0;bottom=0;right=0;collapsible=0;dropTarget=0;fillColor=none;points=[[0,0.5],[1,0.5]];portConstraint=eastwest;fontSize=16;fontFamily=Times New Roman;" vertex="1" parent="73tQ1K4yN3Zxp4GSFfO6-292">
          <mxGeometry width="200" height="22" as="geometry" />
        </mxCell>
        <mxCell id="73tQ1K4yN3Zxp4GSFfO6-294" value="0" style="shape=partialRectangle;html=1;whiteSpace=wrap;connectable=0;strokeColor=inherit;overflow=hidden;fillColor=none;top=0;left=0;bottom=0;right=0;pointerEvents=1;fontSize=16;fontFamily=Times New Roman;" vertex="1" parent="73tQ1K4yN3Zxp4GSFfO6-293">
          <mxGeometry width="23" height="22" as="geometry">
            <mxRectangle width="23" height="22" as="alternateBounds" />
          </mxGeometry>
        </mxCell>
        <mxCell id="73tQ1K4yN3Zxp4GSFfO6-295" value="0" style="shape=partialRectangle;html=1;whiteSpace=wrap;connectable=0;strokeColor=inherit;overflow=hidden;fillColor=none;top=0;left=0;bottom=0;right=0;pointerEvents=1;fontSize=16;fontFamily=Times New Roman;" vertex="1" parent="73tQ1K4yN3Zxp4GSFfO6-293">
          <mxGeometry x="23" width="22" height="22" as="geometry">
            <mxRectangle width="22" height="22" as="alternateBounds" />
          </mxGeometry>
        </mxCell>
        <mxCell id="73tQ1K4yN3Zxp4GSFfO6-296" value="0" style="shape=partialRectangle;html=1;whiteSpace=wrap;connectable=0;strokeColor=inherit;overflow=hidden;fillColor=none;top=0;left=0;bottom=0;right=0;pointerEvents=1;fontSize=16;fontFamily=Times New Roman;" vertex="1" parent="73tQ1K4yN3Zxp4GSFfO6-293">
          <mxGeometry x="45" width="22" height="22" as="geometry">
            <mxRectangle width="22" height="22" as="alternateBounds" />
          </mxGeometry>
        </mxCell>
        <mxCell id="73tQ1K4yN3Zxp4GSFfO6-297" value="0" style="shape=partialRectangle;html=1;whiteSpace=wrap;connectable=0;strokeColor=inherit;overflow=hidden;fillColor=none;top=0;left=0;bottom=0;right=0;pointerEvents=1;fontSize=16;fontFamily=Times New Roman;" vertex="1" parent="73tQ1K4yN3Zxp4GSFfO6-293">
          <mxGeometry x="67" width="22" height="22" as="geometry">
            <mxRectangle width="22" height="22" as="alternateBounds" />
          </mxGeometry>
        </mxCell>
        <mxCell id="73tQ1K4yN3Zxp4GSFfO6-298" value="0" style="shape=partialRectangle;html=1;whiteSpace=wrap;connectable=0;strokeColor=inherit;overflow=hidden;fillColor=none;top=0;left=0;bottom=0;right=0;pointerEvents=1;fontSize=16;fontFamily=Times New Roman;" vertex="1" parent="73tQ1K4yN3Zxp4GSFfO6-293">
          <mxGeometry x="89" width="22" height="22" as="geometry">
            <mxRectangle width="22" height="22" as="alternateBounds" />
          </mxGeometry>
        </mxCell>
        <mxCell id="73tQ1K4yN3Zxp4GSFfO6-299" value="0" style="shape=partialRectangle;html=1;whiteSpace=wrap;connectable=0;strokeColor=inherit;overflow=hidden;fillColor=none;top=0;left=0;bottom=0;right=0;pointerEvents=1;fontSize=16;fontFamily=Times New Roman;" vertex="1" parent="73tQ1K4yN3Zxp4GSFfO6-293">
          <mxGeometry x="111" width="22" height="22" as="geometry">
            <mxRectangle width="22" height="22" as="alternateBounds" />
          </mxGeometry>
        </mxCell>
        <mxCell id="73tQ1K4yN3Zxp4GSFfO6-300" value="0" style="shape=partialRectangle;html=1;whiteSpace=wrap;connectable=0;strokeColor=inherit;overflow=hidden;fillColor=none;top=0;left=0;bottom=0;right=0;pointerEvents=1;fontSize=16;fontFamily=Times New Roman;" vertex="1" parent="73tQ1K4yN3Zxp4GSFfO6-293">
          <mxGeometry x="133" width="22" height="22" as="geometry">
            <mxRectangle width="22" height="22" as="alternateBounds" />
          </mxGeometry>
        </mxCell>
        <mxCell id="73tQ1K4yN3Zxp4GSFfO6-301" value="0" style="shape=partialRectangle;html=1;whiteSpace=wrap;connectable=0;strokeColor=inherit;overflow=hidden;fillColor=none;top=0;left=0;bottom=0;right=0;pointerEvents=1;fontSize=16;fontFamily=Times New Roman;" vertex="1" parent="73tQ1K4yN3Zxp4GSFfO6-293">
          <mxGeometry x="155" width="22" height="22" as="geometry">
            <mxRectangle width="22" height="22" as="alternateBounds" />
          </mxGeometry>
        </mxCell>
        <mxCell id="73tQ1K4yN3Zxp4GSFfO6-302" value="0" style="shape=partialRectangle;html=1;whiteSpace=wrap;connectable=0;strokeColor=inherit;overflow=hidden;fillColor=none;top=0;left=0;bottom=0;right=0;pointerEvents=1;fontSize=16;fontFamily=Times New Roman;" vertex="1" parent="73tQ1K4yN3Zxp4GSFfO6-293">
          <mxGeometry x="177" width="23" height="22" as="geometry">
            <mxRectangle width="23" height="22" as="alternateBounds" />
          </mxGeometry>
        </mxCell>
        <mxCell id="73tQ1K4yN3Zxp4GSFfO6-303" style="shape=tableRow;horizontal=0;startSize=0;swimlaneHead=0;swimlaneBody=0;strokeColor=inherit;top=0;left=0;bottom=0;right=0;collapsible=0;dropTarget=0;fillColor=none;points=[[0,0.5],[1,0.5]];portConstraint=eastwest;fontSize=16;fontFamily=Times New Roman;" vertex="1" parent="73tQ1K4yN3Zxp4GSFfO6-292">
          <mxGeometry y="22" width="200" height="22" as="geometry" />
        </mxCell>
        <mxCell id="73tQ1K4yN3Zxp4GSFfO6-304" value="0" style="shape=partialRectangle;html=1;whiteSpace=wrap;connectable=0;strokeColor=inherit;overflow=hidden;fillColor=none;top=0;left=0;bottom=0;right=0;pointerEvents=1;fontSize=16;fontFamily=Times New Roman;" vertex="1" parent="73tQ1K4yN3Zxp4GSFfO6-303">
          <mxGeometry width="23" height="22" as="geometry">
            <mxRectangle width="23" height="22" as="alternateBounds" />
          </mxGeometry>
        </mxCell>
        <mxCell id="73tQ1K4yN3Zxp4GSFfO6-305" value="0" style="shape=partialRectangle;html=1;whiteSpace=wrap;connectable=0;strokeColor=inherit;overflow=hidden;fillColor=none;top=0;left=0;bottom=0;right=0;pointerEvents=1;fontSize=16;fontFamily=Times New Roman;" vertex="1" parent="73tQ1K4yN3Zxp4GSFfO6-303">
          <mxGeometry x="23" width="22" height="22" as="geometry">
            <mxRectangle width="22" height="22" as="alternateBounds" />
          </mxGeometry>
        </mxCell>
        <mxCell id="73tQ1K4yN3Zxp4GSFfO6-306" value="0" style="shape=partialRectangle;html=1;whiteSpace=wrap;connectable=0;strokeColor=inherit;overflow=hidden;fillColor=none;top=0;left=0;bottom=0;right=0;pointerEvents=1;fontSize=16;fontFamily=Times New Roman;" vertex="1" parent="73tQ1K4yN3Zxp4GSFfO6-303">
          <mxGeometry x="45" width="22" height="22" as="geometry">
            <mxRectangle width="22" height="22" as="alternateBounds" />
          </mxGeometry>
        </mxCell>
        <mxCell id="73tQ1K4yN3Zxp4GSFfO6-307" value="0" style="shape=partialRectangle;html=1;whiteSpace=wrap;connectable=0;strokeColor=inherit;overflow=hidden;fillColor=none;top=0;left=0;bottom=0;right=0;pointerEvents=1;fontSize=16;fontFamily=Times New Roman;" vertex="1" parent="73tQ1K4yN3Zxp4GSFfO6-303">
          <mxGeometry x="67" width="22" height="22" as="geometry">
            <mxRectangle width="22" height="22" as="alternateBounds" />
          </mxGeometry>
        </mxCell>
        <mxCell id="73tQ1K4yN3Zxp4GSFfO6-308" value="0" style="shape=partialRectangle;html=1;whiteSpace=wrap;connectable=0;strokeColor=inherit;overflow=hidden;fillColor=none;top=0;left=0;bottom=0;right=0;pointerEvents=1;fontSize=16;fontFamily=Times New Roman;" vertex="1" parent="73tQ1K4yN3Zxp4GSFfO6-303">
          <mxGeometry x="89" width="22" height="22" as="geometry">
            <mxRectangle width="22" height="22" as="alternateBounds" />
          </mxGeometry>
        </mxCell>
        <mxCell id="73tQ1K4yN3Zxp4GSFfO6-309" value="1" style="shape=partialRectangle;html=1;whiteSpace=wrap;connectable=0;strokeColor=inherit;overflow=hidden;fillColor=none;top=0;left=0;bottom=0;right=0;pointerEvents=1;fontSize=16;fontFamily=Times New Roman;" vertex="1" parent="73tQ1K4yN3Zxp4GSFfO6-303">
          <mxGeometry x="111" width="22" height="22" as="geometry">
            <mxRectangle width="22" height="22" as="alternateBounds" />
          </mxGeometry>
        </mxCell>
        <mxCell id="73tQ1K4yN3Zxp4GSFfO6-310" value="0" style="shape=partialRectangle;html=1;whiteSpace=wrap;connectable=0;strokeColor=inherit;overflow=hidden;fillColor=none;top=0;left=0;bottom=0;right=0;pointerEvents=1;fontSize=16;fontFamily=Times New Roman;" vertex="1" parent="73tQ1K4yN3Zxp4GSFfO6-303">
          <mxGeometry x="133" width="22" height="22" as="geometry">
            <mxRectangle width="22" height="22" as="alternateBounds" />
          </mxGeometry>
        </mxCell>
        <mxCell id="73tQ1K4yN3Zxp4GSFfO6-311" value="0" style="shape=partialRectangle;html=1;whiteSpace=wrap;connectable=0;strokeColor=inherit;overflow=hidden;fillColor=none;top=0;left=0;bottom=0;right=0;pointerEvents=1;fontSize=16;fontFamily=Times New Roman;" vertex="1" parent="73tQ1K4yN3Zxp4GSFfO6-303">
          <mxGeometry x="155" width="22" height="22" as="geometry">
            <mxRectangle width="22" height="22" as="alternateBounds" />
          </mxGeometry>
        </mxCell>
        <mxCell id="73tQ1K4yN3Zxp4GSFfO6-312" value="0" style="shape=partialRectangle;html=1;whiteSpace=wrap;connectable=0;strokeColor=inherit;overflow=hidden;fillColor=none;top=0;left=0;bottom=0;right=0;pointerEvents=1;fontSize=16;fontFamily=Times New Roman;" vertex="1" parent="73tQ1K4yN3Zxp4GSFfO6-303">
          <mxGeometry x="177" width="23" height="22" as="geometry">
            <mxRectangle width="23" height="22" as="alternateBounds" />
          </mxGeometry>
        </mxCell>
        <mxCell id="73tQ1K4yN3Zxp4GSFfO6-313" style="shape=tableRow;horizontal=0;startSize=0;swimlaneHead=0;swimlaneBody=0;strokeColor=inherit;top=0;left=0;bottom=0;right=0;collapsible=0;dropTarget=0;fillColor=none;points=[[0,0.5],[1,0.5]];portConstraint=eastwest;fontSize=16;fontFamily=Times New Roman;" vertex="1" parent="73tQ1K4yN3Zxp4GSFfO6-292">
          <mxGeometry y="44" width="200" height="22" as="geometry" />
        </mxCell>
        <mxCell id="73tQ1K4yN3Zxp4GSFfO6-314" value="0" style="shape=partialRectangle;html=1;whiteSpace=wrap;connectable=0;strokeColor=inherit;overflow=hidden;fillColor=none;top=0;left=0;bottom=0;right=0;pointerEvents=1;fontSize=16;fontFamily=Times New Roman;" vertex="1" parent="73tQ1K4yN3Zxp4GSFfO6-313">
          <mxGeometry width="23" height="22" as="geometry">
            <mxRectangle width="23" height="22" as="alternateBounds" />
          </mxGeometry>
        </mxCell>
        <mxCell id="73tQ1K4yN3Zxp4GSFfO6-315" value="1" style="shape=partialRectangle;html=1;whiteSpace=wrap;connectable=0;strokeColor=inherit;overflow=hidden;fillColor=none;top=0;left=0;bottom=0;right=0;pointerEvents=1;fontSize=16;fontFamily=Times New Roman;" vertex="1" parent="73tQ1K4yN3Zxp4GSFfO6-313">
          <mxGeometry x="23" width="22" height="22" as="geometry">
            <mxRectangle width="22" height="22" as="alternateBounds" />
          </mxGeometry>
        </mxCell>
        <mxCell id="73tQ1K4yN3Zxp4GSFfO6-316" value="0" style="shape=partialRectangle;html=1;whiteSpace=wrap;connectable=0;strokeColor=inherit;overflow=hidden;fillColor=none;top=0;left=0;bottom=0;right=0;pointerEvents=1;fontSize=16;fontFamily=Times New Roman;" vertex="1" parent="73tQ1K4yN3Zxp4GSFfO6-313">
          <mxGeometry x="45" width="22" height="22" as="geometry">
            <mxRectangle width="22" height="22" as="alternateBounds" />
          </mxGeometry>
        </mxCell>
        <mxCell id="73tQ1K4yN3Zxp4GSFfO6-317" value="0" style="shape=partialRectangle;html=1;whiteSpace=wrap;connectable=0;strokeColor=inherit;overflow=hidden;fillColor=none;top=0;left=0;bottom=0;right=0;pointerEvents=1;fontSize=16;fontFamily=Times New Roman;" vertex="1" parent="73tQ1K4yN3Zxp4GSFfO6-313">
          <mxGeometry x="67" width="22" height="22" as="geometry">
            <mxRectangle width="22" height="22" as="alternateBounds" />
          </mxGeometry>
        </mxCell>
        <mxCell id="73tQ1K4yN3Zxp4GSFfO6-318" value="1" style="shape=partialRectangle;html=1;whiteSpace=wrap;connectable=0;strokeColor=inherit;overflow=hidden;fillColor=none;top=0;left=0;bottom=0;right=0;pointerEvents=1;fontSize=16;fontFamily=Times New Roman;" vertex="1" parent="73tQ1K4yN3Zxp4GSFfO6-313">
          <mxGeometry x="89" width="22" height="22" as="geometry">
            <mxRectangle width="22" height="22" as="alternateBounds" />
          </mxGeometry>
        </mxCell>
        <mxCell id="73tQ1K4yN3Zxp4GSFfO6-319" value="0" style="shape=partialRectangle;html=1;whiteSpace=wrap;connectable=0;strokeColor=inherit;overflow=hidden;fillColor=none;top=0;left=0;bottom=0;right=0;pointerEvents=1;fontSize=16;fontFamily=Times New Roman;" vertex="1" parent="73tQ1K4yN3Zxp4GSFfO6-313">
          <mxGeometry x="111" width="22" height="22" as="geometry">
            <mxRectangle width="22" height="22" as="alternateBounds" />
          </mxGeometry>
        </mxCell>
        <mxCell id="73tQ1K4yN3Zxp4GSFfO6-320" value="0" style="shape=partialRectangle;html=1;whiteSpace=wrap;connectable=0;strokeColor=inherit;overflow=hidden;fillColor=none;top=0;left=0;bottom=0;right=0;pointerEvents=1;fontSize=16;fontFamily=Times New Roman;" vertex="1" parent="73tQ1K4yN3Zxp4GSFfO6-313">
          <mxGeometry x="133" width="22" height="22" as="geometry">
            <mxRectangle width="22" height="22" as="alternateBounds" />
          </mxGeometry>
        </mxCell>
        <mxCell id="73tQ1K4yN3Zxp4GSFfO6-321" value="1" style="shape=partialRectangle;html=1;whiteSpace=wrap;connectable=0;strokeColor=inherit;overflow=hidden;fillColor=none;top=0;left=0;bottom=0;right=0;pointerEvents=1;fontSize=16;fontFamily=Times New Roman;" vertex="1" parent="73tQ1K4yN3Zxp4GSFfO6-313">
          <mxGeometry x="155" width="22" height="22" as="geometry">
            <mxRectangle width="22" height="22" as="alternateBounds" />
          </mxGeometry>
        </mxCell>
        <mxCell id="73tQ1K4yN3Zxp4GSFfO6-322" value="0" style="shape=partialRectangle;html=1;whiteSpace=wrap;connectable=0;strokeColor=inherit;overflow=hidden;fillColor=none;top=0;left=0;bottom=0;right=0;pointerEvents=1;fontSize=16;fontFamily=Times New Roman;" vertex="1" parent="73tQ1K4yN3Zxp4GSFfO6-313">
          <mxGeometry x="177" width="23" height="22" as="geometry">
            <mxRectangle width="23" height="22" as="alternateBounds" />
          </mxGeometry>
        </mxCell>
        <mxCell id="73tQ1K4yN3Zxp4GSFfO6-323" style="shape=tableRow;horizontal=0;startSize=0;swimlaneHead=0;swimlaneBody=0;strokeColor=inherit;top=0;left=0;bottom=0;right=0;collapsible=0;dropTarget=0;fillColor=none;points=[[0,0.5],[1,0.5]];portConstraint=eastwest;fontSize=16;fontFamily=Times New Roman;" vertex="1" parent="73tQ1K4yN3Zxp4GSFfO6-292">
          <mxGeometry y="66" width="200" height="22" as="geometry" />
        </mxCell>
        <mxCell id="73tQ1K4yN3Zxp4GSFfO6-324" value="0" style="shape=partialRectangle;html=1;whiteSpace=wrap;connectable=0;strokeColor=inherit;overflow=hidden;fillColor=none;top=0;left=0;bottom=0;right=0;pointerEvents=1;fontSize=16;fontFamily=Times New Roman;" vertex="1" parent="73tQ1K4yN3Zxp4GSFfO6-323">
          <mxGeometry width="23" height="22" as="geometry">
            <mxRectangle width="23" height="22" as="alternateBounds" />
          </mxGeometry>
        </mxCell>
        <mxCell id="73tQ1K4yN3Zxp4GSFfO6-325" value="0" style="shape=partialRectangle;html=1;whiteSpace=wrap;connectable=0;strokeColor=inherit;overflow=hidden;fillColor=none;top=0;left=0;bottom=0;right=0;pointerEvents=1;fontSize=16;fontFamily=Times New Roman;" vertex="1" parent="73tQ1K4yN3Zxp4GSFfO6-323">
          <mxGeometry x="23" width="22" height="22" as="geometry">
            <mxRectangle width="22" height="22" as="alternateBounds" />
          </mxGeometry>
        </mxCell>
        <mxCell id="73tQ1K4yN3Zxp4GSFfO6-326" value="0" style="shape=partialRectangle;html=1;whiteSpace=wrap;connectable=0;strokeColor=inherit;overflow=hidden;fillColor=none;top=0;left=0;bottom=0;right=0;pointerEvents=1;fontSize=16;fontFamily=Times New Roman;" vertex="1" parent="73tQ1K4yN3Zxp4GSFfO6-323">
          <mxGeometry x="45" width="22" height="22" as="geometry">
            <mxRectangle width="22" height="22" as="alternateBounds" />
          </mxGeometry>
        </mxCell>
        <mxCell id="73tQ1K4yN3Zxp4GSFfO6-327" value="1" style="shape=partialRectangle;html=1;whiteSpace=wrap;connectable=0;strokeColor=inherit;overflow=hidden;fillColor=none;top=0;left=0;bottom=0;right=0;pointerEvents=1;fontSize=16;fontFamily=Times New Roman;" vertex="1" parent="73tQ1K4yN3Zxp4GSFfO6-323">
          <mxGeometry x="67" width="22" height="22" as="geometry">
            <mxRectangle width="22" height="22" as="alternateBounds" />
          </mxGeometry>
        </mxCell>
        <mxCell id="73tQ1K4yN3Zxp4GSFfO6-328" value="0" style="shape=partialRectangle;html=1;whiteSpace=wrap;connectable=0;strokeColor=inherit;overflow=hidden;fillColor=none;top=0;left=0;bottom=0;right=0;pointerEvents=1;fontSize=16;fontFamily=Times New Roman;" vertex="1" parent="73tQ1K4yN3Zxp4GSFfO6-323">
          <mxGeometry x="89" width="22" height="22" as="geometry">
            <mxRectangle width="22" height="22" as="alternateBounds" />
          </mxGeometry>
        </mxCell>
        <mxCell id="73tQ1K4yN3Zxp4GSFfO6-329" value="1" style="shape=partialRectangle;html=1;whiteSpace=wrap;connectable=0;strokeColor=inherit;overflow=hidden;fillColor=none;top=0;left=0;bottom=0;right=0;pointerEvents=1;fontSize=16;fontFamily=Times New Roman;" vertex="1" parent="73tQ1K4yN3Zxp4GSFfO6-323">
          <mxGeometry x="111" width="22" height="22" as="geometry">
            <mxRectangle width="22" height="22" as="alternateBounds" />
          </mxGeometry>
        </mxCell>
        <mxCell id="73tQ1K4yN3Zxp4GSFfO6-330" value="0" style="shape=partialRectangle;html=1;whiteSpace=wrap;connectable=0;strokeColor=inherit;overflow=hidden;fillColor=none;top=0;left=0;bottom=0;right=0;pointerEvents=1;fontSize=16;fontFamily=Times New Roman;" vertex="1" parent="73tQ1K4yN3Zxp4GSFfO6-323">
          <mxGeometry x="133" width="22" height="22" as="geometry">
            <mxRectangle width="22" height="22" as="alternateBounds" />
          </mxGeometry>
        </mxCell>
        <mxCell id="73tQ1K4yN3Zxp4GSFfO6-331" value="0" style="shape=partialRectangle;html=1;whiteSpace=wrap;connectable=0;strokeColor=inherit;overflow=hidden;fillColor=none;top=0;left=0;bottom=0;right=0;pointerEvents=1;fontSize=16;fontFamily=Times New Roman;" vertex="1" parent="73tQ1K4yN3Zxp4GSFfO6-323">
          <mxGeometry x="155" width="22" height="22" as="geometry">
            <mxRectangle width="22" height="22" as="alternateBounds" />
          </mxGeometry>
        </mxCell>
        <mxCell id="73tQ1K4yN3Zxp4GSFfO6-332" value="0" style="shape=partialRectangle;html=1;whiteSpace=wrap;connectable=0;strokeColor=inherit;overflow=hidden;fillColor=none;top=0;left=0;bottom=0;right=0;pointerEvents=1;fontSize=16;fontFamily=Times New Roman;" vertex="1" parent="73tQ1K4yN3Zxp4GSFfO6-323">
          <mxGeometry x="177" width="23" height="22" as="geometry">
            <mxRectangle width="23" height="22" as="alternateBounds" />
          </mxGeometry>
        </mxCell>
        <mxCell id="73tQ1K4yN3Zxp4GSFfO6-333" style="shape=tableRow;horizontal=0;startSize=0;swimlaneHead=0;swimlaneBody=0;strokeColor=inherit;top=0;left=0;bottom=0;right=0;collapsible=0;dropTarget=0;fillColor=none;points=[[0,0.5],[1,0.5]];portConstraint=eastwest;fontSize=16;fontFamily=Times New Roman;" vertex="1" parent="73tQ1K4yN3Zxp4GSFfO6-292">
          <mxGeometry y="88" width="200" height="23" as="geometry" />
        </mxCell>
        <mxCell id="73tQ1K4yN3Zxp4GSFfO6-334" value="0" style="shape=partialRectangle;html=1;whiteSpace=wrap;connectable=0;strokeColor=inherit;overflow=hidden;fillColor=none;top=0;left=0;bottom=0;right=0;pointerEvents=1;fontSize=16;fontFamily=Times New Roman;" vertex="1" parent="73tQ1K4yN3Zxp4GSFfO6-333">
          <mxGeometry width="23" height="23" as="geometry">
            <mxRectangle width="23" height="23" as="alternateBounds" />
          </mxGeometry>
        </mxCell>
        <mxCell id="73tQ1K4yN3Zxp4GSFfO6-335" value="0" style="shape=partialRectangle;html=1;whiteSpace=wrap;connectable=0;strokeColor=inherit;overflow=hidden;fillColor=none;top=0;left=0;bottom=0;right=0;pointerEvents=1;fontSize=16;fontFamily=Times New Roman;" vertex="1" parent="73tQ1K4yN3Zxp4GSFfO6-333">
          <mxGeometry x="23" width="22" height="23" as="geometry">
            <mxRectangle width="22" height="23" as="alternateBounds" />
          </mxGeometry>
        </mxCell>
        <mxCell id="73tQ1K4yN3Zxp4GSFfO6-336" value="1" style="shape=partialRectangle;html=1;whiteSpace=wrap;connectable=0;strokeColor=inherit;overflow=hidden;fillColor=none;top=0;left=0;bottom=0;right=0;pointerEvents=1;fontSize=16;fontFamily=Times New Roman;" vertex="1" parent="73tQ1K4yN3Zxp4GSFfO6-333">
          <mxGeometry x="45" width="22" height="23" as="geometry">
            <mxRectangle width="22" height="23" as="alternateBounds" />
          </mxGeometry>
        </mxCell>
        <mxCell id="73tQ1K4yN3Zxp4GSFfO6-337" value="1" style="shape=partialRectangle;html=1;whiteSpace=wrap;connectable=0;strokeColor=inherit;overflow=hidden;fillColor=none;top=0;left=0;bottom=0;right=0;pointerEvents=1;fontSize=16;fontFamily=Times New Roman;" vertex="1" parent="73tQ1K4yN3Zxp4GSFfO6-333">
          <mxGeometry x="67" width="22" height="23" as="geometry">
            <mxRectangle width="22" height="23" as="alternateBounds" />
          </mxGeometry>
        </mxCell>
        <mxCell id="73tQ1K4yN3Zxp4GSFfO6-338" value="0" style="shape=partialRectangle;html=1;whiteSpace=wrap;connectable=0;strokeColor=inherit;overflow=hidden;fillColor=none;top=0;left=0;bottom=0;right=0;pointerEvents=1;fontSize=16;fontFamily=Times New Roman;" vertex="1" parent="73tQ1K4yN3Zxp4GSFfO6-333">
          <mxGeometry x="89" width="22" height="23" as="geometry">
            <mxRectangle width="22" height="23" as="alternateBounds" />
          </mxGeometry>
        </mxCell>
        <mxCell id="73tQ1K4yN3Zxp4GSFfO6-339" value="0" style="shape=partialRectangle;html=1;whiteSpace=wrap;connectable=0;strokeColor=inherit;overflow=hidden;fillColor=none;top=0;left=0;bottom=0;right=0;pointerEvents=1;fontSize=16;fontFamily=Times New Roman;" vertex="1" parent="73tQ1K4yN3Zxp4GSFfO6-333">
          <mxGeometry x="111" width="22" height="23" as="geometry">
            <mxRectangle width="22" height="23" as="alternateBounds" />
          </mxGeometry>
        </mxCell>
        <mxCell id="73tQ1K4yN3Zxp4GSFfO6-340" value="1" style="shape=partialRectangle;html=1;whiteSpace=wrap;connectable=0;strokeColor=inherit;overflow=hidden;fillColor=none;top=0;left=0;bottom=0;right=0;pointerEvents=1;fontSize=16;fontFamily=Times New Roman;" vertex="1" parent="73tQ1K4yN3Zxp4GSFfO6-333">
          <mxGeometry x="133" width="22" height="23" as="geometry">
            <mxRectangle width="22" height="23" as="alternateBounds" />
          </mxGeometry>
        </mxCell>
        <mxCell id="73tQ1K4yN3Zxp4GSFfO6-341" value="0" style="shape=partialRectangle;html=1;whiteSpace=wrap;connectable=0;strokeColor=inherit;overflow=hidden;fillColor=none;top=0;left=0;bottom=0;right=0;pointerEvents=1;fontSize=16;fontFamily=Times New Roman;" vertex="1" parent="73tQ1K4yN3Zxp4GSFfO6-333">
          <mxGeometry x="155" width="22" height="23" as="geometry">
            <mxRectangle width="22" height="23" as="alternateBounds" />
          </mxGeometry>
        </mxCell>
        <mxCell id="73tQ1K4yN3Zxp4GSFfO6-342" value="0" style="shape=partialRectangle;html=1;whiteSpace=wrap;connectable=0;strokeColor=inherit;overflow=hidden;fillColor=none;top=0;left=0;bottom=0;right=0;pointerEvents=1;fontSize=16;fontFamily=Times New Roman;" vertex="1" parent="73tQ1K4yN3Zxp4GSFfO6-333">
          <mxGeometry x="177" width="23" height="23" as="geometry">
            <mxRectangle width="23" height="23" as="alternateBounds" />
          </mxGeometry>
        </mxCell>
        <mxCell id="73tQ1K4yN3Zxp4GSFfO6-343" value="" style="shape=tableRow;horizontal=0;startSize=0;swimlaneHead=0;swimlaneBody=0;strokeColor=inherit;top=0;left=0;bottom=0;right=0;collapsible=0;dropTarget=0;fillColor=none;points=[[0,0.5],[1,0.5]];portConstraint=eastwest;fontSize=16;fontFamily=Times New Roman;" vertex="1" parent="73tQ1K4yN3Zxp4GSFfO6-292">
          <mxGeometry y="111" width="200" height="22" as="geometry" />
        </mxCell>
        <mxCell id="73tQ1K4yN3Zxp4GSFfO6-344" value="0" style="shape=partialRectangle;html=1;whiteSpace=wrap;connectable=0;strokeColor=inherit;overflow=hidden;fillColor=none;top=0;left=0;bottom=0;right=0;pointerEvents=1;fontSize=16;fontFamily=Times New Roman;" vertex="1" parent="73tQ1K4yN3Zxp4GSFfO6-343">
          <mxGeometry width="23" height="22" as="geometry">
            <mxRectangle width="23" height="22" as="alternateBounds" />
          </mxGeometry>
        </mxCell>
        <mxCell id="73tQ1K4yN3Zxp4GSFfO6-345" value="1" style="shape=partialRectangle;html=1;whiteSpace=wrap;connectable=0;strokeColor=inherit;overflow=hidden;fillColor=none;top=0;left=0;bottom=0;right=0;pointerEvents=1;fontSize=16;fontFamily=Times New Roman;" vertex="1" parent="73tQ1K4yN3Zxp4GSFfO6-343">
          <mxGeometry x="23" width="22" height="22" as="geometry">
            <mxRectangle width="22" height="22" as="alternateBounds" />
          </mxGeometry>
        </mxCell>
        <mxCell id="73tQ1K4yN3Zxp4GSFfO6-346" value="0" style="shape=partialRectangle;html=1;whiteSpace=wrap;connectable=0;strokeColor=inherit;overflow=hidden;fillColor=none;top=0;left=0;bottom=0;right=0;pointerEvents=1;fontSize=16;fontFamily=Times New Roman;" vertex="1" parent="73tQ1K4yN3Zxp4GSFfO6-343">
          <mxGeometry x="45" width="22" height="22" as="geometry">
            <mxRectangle width="22" height="22" as="alternateBounds" />
          </mxGeometry>
        </mxCell>
        <mxCell id="73tQ1K4yN3Zxp4GSFfO6-347" value="1" style="shape=partialRectangle;html=1;whiteSpace=wrap;connectable=0;strokeColor=inherit;overflow=hidden;fillColor=none;top=0;left=0;bottom=0;right=0;pointerEvents=1;fontSize=16;fontFamily=Times New Roman;" vertex="1" parent="73tQ1K4yN3Zxp4GSFfO6-343">
          <mxGeometry x="67" width="22" height="22" as="geometry">
            <mxRectangle width="22" height="22" as="alternateBounds" />
          </mxGeometry>
        </mxCell>
        <mxCell id="73tQ1K4yN3Zxp4GSFfO6-348" value="0" style="shape=partialRectangle;html=1;whiteSpace=wrap;connectable=0;strokeColor=inherit;overflow=hidden;fillColor=none;top=0;left=0;bottom=0;right=0;pointerEvents=1;fontSize=16;fontFamily=Times New Roman;" vertex="1" parent="73tQ1K4yN3Zxp4GSFfO6-343">
          <mxGeometry x="89" width="22" height="22" as="geometry">
            <mxRectangle width="22" height="22" as="alternateBounds" />
          </mxGeometry>
        </mxCell>
        <mxCell id="73tQ1K4yN3Zxp4GSFfO6-349" value="0" style="shape=partialRectangle;html=1;whiteSpace=wrap;connectable=0;strokeColor=inherit;overflow=hidden;fillColor=none;top=0;left=0;bottom=0;right=0;pointerEvents=1;fontSize=16;fontFamily=Times New Roman;" vertex="1" parent="73tQ1K4yN3Zxp4GSFfO6-343">
          <mxGeometry x="111" width="22" height="22" as="geometry">
            <mxRectangle width="22" height="22" as="alternateBounds" />
          </mxGeometry>
        </mxCell>
        <mxCell id="73tQ1K4yN3Zxp4GSFfO6-350" value="1" style="shape=partialRectangle;html=1;whiteSpace=wrap;connectable=0;strokeColor=inherit;overflow=hidden;fillColor=none;top=0;left=0;bottom=0;right=0;pointerEvents=1;fontSize=16;fontFamily=Times New Roman;" vertex="1" parent="73tQ1K4yN3Zxp4GSFfO6-343">
          <mxGeometry x="133" width="22" height="22" as="geometry">
            <mxRectangle width="22" height="22" as="alternateBounds" />
          </mxGeometry>
        </mxCell>
        <mxCell id="73tQ1K4yN3Zxp4GSFfO6-351" value="0" style="shape=partialRectangle;html=1;whiteSpace=wrap;connectable=0;strokeColor=inherit;overflow=hidden;fillColor=none;top=0;left=0;bottom=0;right=0;pointerEvents=1;fontSize=16;fontFamily=Times New Roman;" vertex="1" parent="73tQ1K4yN3Zxp4GSFfO6-343">
          <mxGeometry x="155" width="22" height="22" as="geometry">
            <mxRectangle width="22" height="22" as="alternateBounds" />
          </mxGeometry>
        </mxCell>
        <mxCell id="73tQ1K4yN3Zxp4GSFfO6-352" value="0" style="shape=partialRectangle;html=1;whiteSpace=wrap;connectable=0;strokeColor=inherit;overflow=hidden;fillColor=none;top=0;left=0;bottom=0;right=0;pointerEvents=1;fontSize=16;fontFamily=Times New Roman;" vertex="1" parent="73tQ1K4yN3Zxp4GSFfO6-343">
          <mxGeometry x="177" width="23" height="22" as="geometry">
            <mxRectangle width="23" height="22" as="alternateBounds" />
          </mxGeometry>
        </mxCell>
        <mxCell id="73tQ1K4yN3Zxp4GSFfO6-353" value="" style="shape=tableRow;horizontal=0;startSize=0;swimlaneHead=0;swimlaneBody=0;strokeColor=inherit;top=0;left=0;bottom=0;right=0;collapsible=0;dropTarget=0;fillColor=none;points=[[0,0.5],[1,0.5]];portConstraint=eastwest;fontSize=16;fontFamily=Times New Roman;" vertex="1" parent="73tQ1K4yN3Zxp4GSFfO6-292">
          <mxGeometry y="133" width="200" height="22" as="geometry" />
        </mxCell>
        <mxCell id="73tQ1K4yN3Zxp4GSFfO6-354" value="0" style="shape=partialRectangle;html=1;whiteSpace=wrap;connectable=0;strokeColor=inherit;overflow=hidden;fillColor=none;top=0;left=0;bottom=0;right=0;pointerEvents=1;fontSize=16;fontFamily=Times New Roman;" vertex="1" parent="73tQ1K4yN3Zxp4GSFfO6-353">
          <mxGeometry width="23" height="22" as="geometry">
            <mxRectangle width="23" height="22" as="alternateBounds" />
          </mxGeometry>
        </mxCell>
        <mxCell id="73tQ1K4yN3Zxp4GSFfO6-355" value="0" style="shape=partialRectangle;html=1;whiteSpace=wrap;connectable=0;strokeColor=inherit;overflow=hidden;fillColor=none;top=0;left=0;bottom=0;right=0;pointerEvents=1;fontSize=16;fontFamily=Times New Roman;" vertex="1" parent="73tQ1K4yN3Zxp4GSFfO6-353">
          <mxGeometry x="23" width="22" height="22" as="geometry">
            <mxRectangle width="22" height="22" as="alternateBounds" />
          </mxGeometry>
        </mxCell>
        <mxCell id="73tQ1K4yN3Zxp4GSFfO6-356" value="0" style="shape=partialRectangle;html=1;whiteSpace=wrap;connectable=0;strokeColor=inherit;overflow=hidden;fillColor=none;top=0;left=0;bottom=0;right=0;pointerEvents=1;fontSize=16;fontFamily=Times New Roman;" vertex="1" parent="73tQ1K4yN3Zxp4GSFfO6-353">
          <mxGeometry x="45" width="22" height="22" as="geometry">
            <mxRectangle width="22" height="22" as="alternateBounds" />
          </mxGeometry>
        </mxCell>
        <mxCell id="73tQ1K4yN3Zxp4GSFfO6-357" value="1" style="shape=partialRectangle;html=1;whiteSpace=wrap;connectable=0;strokeColor=inherit;overflow=hidden;fillColor=none;top=0;left=0;bottom=0;right=0;pointerEvents=1;fontSize=16;fontFamily=Times New Roman;" vertex="1" parent="73tQ1K4yN3Zxp4GSFfO6-353">
          <mxGeometry x="67" width="22" height="22" as="geometry">
            <mxRectangle width="22" height="22" as="alternateBounds" />
          </mxGeometry>
        </mxCell>
        <mxCell id="73tQ1K4yN3Zxp4GSFfO6-358" value="0" style="shape=partialRectangle;html=1;whiteSpace=wrap;connectable=0;strokeColor=inherit;overflow=hidden;fillColor=none;top=0;left=0;bottom=0;right=0;pointerEvents=1;fontSize=16;fontFamily=Times New Roman;" vertex="1" parent="73tQ1K4yN3Zxp4GSFfO6-353">
          <mxGeometry x="89" width="22" height="22" as="geometry">
            <mxRectangle width="22" height="22" as="alternateBounds" />
          </mxGeometry>
        </mxCell>
        <mxCell id="73tQ1K4yN3Zxp4GSFfO6-359" value="0" style="shape=partialRectangle;html=1;whiteSpace=wrap;connectable=0;strokeColor=inherit;overflow=hidden;fillColor=none;top=0;left=0;bottom=0;right=0;pointerEvents=1;fontSize=16;fontFamily=Times New Roman;" vertex="1" parent="73tQ1K4yN3Zxp4GSFfO6-353">
          <mxGeometry x="111" width="22" height="22" as="geometry">
            <mxRectangle width="22" height="22" as="alternateBounds" />
          </mxGeometry>
        </mxCell>
        <mxCell id="73tQ1K4yN3Zxp4GSFfO6-360" value="1" style="shape=partialRectangle;html=1;whiteSpace=wrap;connectable=0;strokeColor=inherit;overflow=hidden;fillColor=none;top=0;left=0;bottom=0;right=0;pointerEvents=1;fontSize=16;fontFamily=Times New Roman;" vertex="1" parent="73tQ1K4yN3Zxp4GSFfO6-353">
          <mxGeometry x="133" width="22" height="22" as="geometry">
            <mxRectangle width="22" height="22" as="alternateBounds" />
          </mxGeometry>
        </mxCell>
        <mxCell id="73tQ1K4yN3Zxp4GSFfO6-361" value="0" style="shape=partialRectangle;html=1;whiteSpace=wrap;connectable=0;strokeColor=inherit;overflow=hidden;fillColor=none;top=0;left=0;bottom=0;right=0;pointerEvents=1;fontSize=16;fontFamily=Times New Roman;" vertex="1" parent="73tQ1K4yN3Zxp4GSFfO6-353">
          <mxGeometry x="155" width="22" height="22" as="geometry">
            <mxRectangle width="22" height="22" as="alternateBounds" />
          </mxGeometry>
        </mxCell>
        <mxCell id="73tQ1K4yN3Zxp4GSFfO6-362" value="0" style="shape=partialRectangle;html=1;whiteSpace=wrap;connectable=0;strokeColor=inherit;overflow=hidden;fillColor=none;top=0;left=0;bottom=0;right=0;pointerEvents=1;fontSize=16;fontFamily=Times New Roman;" vertex="1" parent="73tQ1K4yN3Zxp4GSFfO6-353">
          <mxGeometry x="177" width="23" height="22" as="geometry">
            <mxRectangle width="23" height="22" as="alternateBounds" />
          </mxGeometry>
        </mxCell>
        <mxCell id="73tQ1K4yN3Zxp4GSFfO6-363" value="" style="shape=tableRow;horizontal=0;startSize=0;swimlaneHead=0;swimlaneBody=0;strokeColor=inherit;top=0;left=0;bottom=0;right=0;collapsible=0;dropTarget=0;fillColor=none;points=[[0,0.5],[1,0.5]];portConstraint=eastwest;fontSize=16;fontFamily=Times New Roman;" vertex="1" parent="73tQ1K4yN3Zxp4GSFfO6-292">
          <mxGeometry y="155" width="200" height="22" as="geometry" />
        </mxCell>
        <mxCell id="73tQ1K4yN3Zxp4GSFfO6-364" value="0" style="shape=partialRectangle;html=1;whiteSpace=wrap;connectable=0;strokeColor=inherit;overflow=hidden;fillColor=none;top=0;left=0;bottom=0;right=0;pointerEvents=1;fontSize=16;fontFamily=Times New Roman;" vertex="1" parent="73tQ1K4yN3Zxp4GSFfO6-363">
          <mxGeometry width="23" height="22" as="geometry">
            <mxRectangle width="23" height="22" as="alternateBounds" />
          </mxGeometry>
        </mxCell>
        <mxCell id="73tQ1K4yN3Zxp4GSFfO6-365" value="0" style="shape=partialRectangle;html=1;whiteSpace=wrap;connectable=0;strokeColor=inherit;overflow=hidden;fillColor=none;top=0;left=0;bottom=0;right=0;pointerEvents=1;fontSize=16;fontFamily=Times New Roman;" vertex="1" parent="73tQ1K4yN3Zxp4GSFfO6-363">
          <mxGeometry x="23" width="22" height="22" as="geometry">
            <mxRectangle width="22" height="22" as="alternateBounds" />
          </mxGeometry>
        </mxCell>
        <mxCell id="73tQ1K4yN3Zxp4GSFfO6-366" value="0" style="shape=partialRectangle;html=1;whiteSpace=wrap;connectable=0;strokeColor=inherit;overflow=hidden;fillColor=none;top=0;left=0;bottom=0;right=0;pointerEvents=1;fontSize=16;fontFamily=Times New Roman;" vertex="1" parent="73tQ1K4yN3Zxp4GSFfO6-363">
          <mxGeometry x="45" width="22" height="22" as="geometry">
            <mxRectangle width="22" height="22" as="alternateBounds" />
          </mxGeometry>
        </mxCell>
        <mxCell id="73tQ1K4yN3Zxp4GSFfO6-367" value="0" style="shape=partialRectangle;html=1;whiteSpace=wrap;connectable=0;strokeColor=inherit;overflow=hidden;fillColor=none;top=0;left=0;bottom=0;right=0;pointerEvents=1;fontSize=16;fontFamily=Times New Roman;" vertex="1" parent="73tQ1K4yN3Zxp4GSFfO6-363">
          <mxGeometry x="67" width="22" height="22" as="geometry">
            <mxRectangle width="22" height="22" as="alternateBounds" />
          </mxGeometry>
        </mxCell>
        <mxCell id="73tQ1K4yN3Zxp4GSFfO6-368" value="1" style="shape=partialRectangle;html=1;whiteSpace=wrap;connectable=0;strokeColor=inherit;overflow=hidden;fillColor=none;top=0;left=0;bottom=0;right=0;pointerEvents=1;fontSize=16;fontFamily=Times New Roman;" vertex="1" parent="73tQ1K4yN3Zxp4GSFfO6-363">
          <mxGeometry x="89" width="22" height="22" as="geometry">
            <mxRectangle width="22" height="22" as="alternateBounds" />
          </mxGeometry>
        </mxCell>
        <mxCell id="73tQ1K4yN3Zxp4GSFfO6-369" value="1" style="shape=partialRectangle;html=1;whiteSpace=wrap;connectable=0;strokeColor=inherit;overflow=hidden;fillColor=none;top=0;left=0;bottom=0;right=0;pointerEvents=1;fontSize=16;fontFamily=Times New Roman;" vertex="1" parent="73tQ1K4yN3Zxp4GSFfO6-363">
          <mxGeometry x="111" width="22" height="22" as="geometry">
            <mxRectangle width="22" height="22" as="alternateBounds" />
          </mxGeometry>
        </mxCell>
        <mxCell id="73tQ1K4yN3Zxp4GSFfO6-370" value="0" style="shape=partialRectangle;html=1;whiteSpace=wrap;connectable=0;strokeColor=inherit;overflow=hidden;fillColor=none;top=0;left=0;bottom=0;right=0;pointerEvents=1;fontSize=16;fontFamily=Times New Roman;" vertex="1" parent="73tQ1K4yN3Zxp4GSFfO6-363">
          <mxGeometry x="133" width="22" height="22" as="geometry">
            <mxRectangle width="22" height="22" as="alternateBounds" />
          </mxGeometry>
        </mxCell>
        <mxCell id="73tQ1K4yN3Zxp4GSFfO6-371" value="1" style="shape=partialRectangle;html=1;whiteSpace=wrap;connectable=0;strokeColor=inherit;overflow=hidden;fillColor=none;top=0;left=0;bottom=0;right=0;pointerEvents=1;fontSize=16;fontFamily=Times New Roman;" vertex="1" parent="73tQ1K4yN3Zxp4GSFfO6-363">
          <mxGeometry x="155" width="22" height="22" as="geometry">
            <mxRectangle width="22" height="22" as="alternateBounds" />
          </mxGeometry>
        </mxCell>
        <mxCell id="73tQ1K4yN3Zxp4GSFfO6-372" value="0" style="shape=partialRectangle;html=1;whiteSpace=wrap;connectable=0;strokeColor=inherit;overflow=hidden;fillColor=none;top=0;left=0;bottom=0;right=0;pointerEvents=1;fontSize=16;fontFamily=Times New Roman;" vertex="1" parent="73tQ1K4yN3Zxp4GSFfO6-363">
          <mxGeometry x="177" width="23" height="22" as="geometry">
            <mxRectangle width="23" height="22" as="alternateBounds" />
          </mxGeometry>
        </mxCell>
        <mxCell id="73tQ1K4yN3Zxp4GSFfO6-373" style="shape=tableRow;horizontal=0;startSize=0;swimlaneHead=0;swimlaneBody=0;strokeColor=inherit;top=0;left=0;bottom=0;right=0;collapsible=0;dropTarget=0;fillColor=none;points=[[0,0.5],[1,0.5]];portConstraint=eastwest;fontSize=16;fontFamily=Times New Roman;" vertex="1" parent="73tQ1K4yN3Zxp4GSFfO6-292">
          <mxGeometry y="177" width="200" height="22" as="geometry" />
        </mxCell>
        <mxCell id="73tQ1K4yN3Zxp4GSFfO6-374" value="0" style="shape=partialRectangle;html=1;whiteSpace=wrap;connectable=0;strokeColor=inherit;overflow=hidden;fillColor=none;top=0;left=0;bottom=0;right=0;pointerEvents=1;fontSize=16;fontFamily=Times New Roman;" vertex="1" parent="73tQ1K4yN3Zxp4GSFfO6-373">
          <mxGeometry width="23" height="22" as="geometry">
            <mxRectangle width="23" height="22" as="alternateBounds" />
          </mxGeometry>
        </mxCell>
        <mxCell id="73tQ1K4yN3Zxp4GSFfO6-375" value="0" style="shape=partialRectangle;html=1;whiteSpace=wrap;connectable=0;strokeColor=inherit;overflow=hidden;fillColor=none;top=0;left=0;bottom=0;right=0;pointerEvents=1;fontSize=16;fontFamily=Times New Roman;" vertex="1" parent="73tQ1K4yN3Zxp4GSFfO6-373">
          <mxGeometry x="23" width="22" height="22" as="geometry">
            <mxRectangle width="22" height="22" as="alternateBounds" />
          </mxGeometry>
        </mxCell>
        <mxCell id="73tQ1K4yN3Zxp4GSFfO6-376" value="0" style="shape=partialRectangle;html=1;whiteSpace=wrap;connectable=0;strokeColor=inherit;overflow=hidden;fillColor=none;top=0;left=0;bottom=0;right=0;pointerEvents=1;fontSize=16;fontFamily=Times New Roman;" vertex="1" parent="73tQ1K4yN3Zxp4GSFfO6-373">
          <mxGeometry x="45" width="22" height="22" as="geometry">
            <mxRectangle width="22" height="22" as="alternateBounds" />
          </mxGeometry>
        </mxCell>
        <mxCell id="73tQ1K4yN3Zxp4GSFfO6-377" value="0" style="shape=partialRectangle;html=1;whiteSpace=wrap;connectable=0;strokeColor=inherit;overflow=hidden;fillColor=none;top=0;left=0;bottom=0;right=0;pointerEvents=1;fontSize=16;fontFamily=Times New Roman;" vertex="1" parent="73tQ1K4yN3Zxp4GSFfO6-373">
          <mxGeometry x="67" width="22" height="22" as="geometry">
            <mxRectangle width="22" height="22" as="alternateBounds" />
          </mxGeometry>
        </mxCell>
        <mxCell id="73tQ1K4yN3Zxp4GSFfO6-378" value="0" style="shape=partialRectangle;html=1;whiteSpace=wrap;connectable=0;strokeColor=inherit;overflow=hidden;fillColor=none;top=0;left=0;bottom=0;right=0;pointerEvents=1;fontSize=16;fontFamily=Times New Roman;" vertex="1" parent="73tQ1K4yN3Zxp4GSFfO6-373">
          <mxGeometry x="89" width="22" height="22" as="geometry">
            <mxRectangle width="22" height="22" as="alternateBounds" />
          </mxGeometry>
        </mxCell>
        <mxCell id="73tQ1K4yN3Zxp4GSFfO6-379" value="0" style="shape=partialRectangle;html=1;whiteSpace=wrap;connectable=0;strokeColor=inherit;overflow=hidden;fillColor=none;top=0;left=0;bottom=0;right=0;pointerEvents=1;fontSize=16;fontFamily=Times New Roman;" vertex="1" parent="73tQ1K4yN3Zxp4GSFfO6-373">
          <mxGeometry x="111" width="22" height="22" as="geometry">
            <mxRectangle width="22" height="22" as="alternateBounds" />
          </mxGeometry>
        </mxCell>
        <mxCell id="73tQ1K4yN3Zxp4GSFfO6-380" value="0" style="shape=partialRectangle;html=1;whiteSpace=wrap;connectable=0;strokeColor=inherit;overflow=hidden;fillColor=none;top=0;left=0;bottom=0;right=0;pointerEvents=1;fontSize=16;fontFamily=Times New Roman;" vertex="1" parent="73tQ1K4yN3Zxp4GSFfO6-373">
          <mxGeometry x="133" width="22" height="22" as="geometry">
            <mxRectangle width="22" height="22" as="alternateBounds" />
          </mxGeometry>
        </mxCell>
        <mxCell id="73tQ1K4yN3Zxp4GSFfO6-381" value="0" style="shape=partialRectangle;html=1;whiteSpace=wrap;connectable=0;strokeColor=inherit;overflow=hidden;fillColor=none;top=0;left=0;bottom=0;right=0;pointerEvents=1;fontSize=16;fontFamily=Times New Roman;" vertex="1" parent="73tQ1K4yN3Zxp4GSFfO6-373">
          <mxGeometry x="155" width="22" height="22" as="geometry">
            <mxRectangle width="22" height="22" as="alternateBounds" />
          </mxGeometry>
        </mxCell>
        <mxCell id="73tQ1K4yN3Zxp4GSFfO6-382" value="0" style="shape=partialRectangle;html=1;whiteSpace=wrap;connectable=0;strokeColor=inherit;overflow=hidden;fillColor=none;top=0;left=0;bottom=0;right=0;pointerEvents=1;fontSize=16;fontFamily=Times New Roman;" vertex="1" parent="73tQ1K4yN3Zxp4GSFfO6-373">
          <mxGeometry x="177" width="23" height="22" as="geometry">
            <mxRectangle width="23" height="22" as="alternateBounds" />
          </mxGeometry>
        </mxCell>
      </root>
    </mxGraphModel>
  </diagram>
</mxfile>
